<svg width="93" height="52" viewBox="0 0 93 52" fill="none" xmlns="http://www.w3.org/2000/svg">
<rect width="93" height="52" fill="white"/>
<path fill-rule="evenodd" clip-rule="evenodd" d="M60.5002 8H36.3982C33.5453 8 31.2337 10.3122 31.2337 13.1652V29.2054L32.3383 27.8437V13.4494C32.3383 11.0499 34.283 9.10456 36.6825 9.10456H60.2153C62.6148 9.10456 64.5602 11.0499 64.5602 13.4494V36.9823C64.5602 39.3818 62.6148 41.3265 60.2153 41.3265H36.6825C36.6712 41.3265 36.6607 41.3252 36.6501 41.3252C36.2773 41.6914 35.9084 42.0364 35.5435 42.355C35.8218 42.4013 36.1061 42.4317 36.3982 42.4317H60.5002C63.3519 42.4317 65.6654 40.1188 65.6654 37.2665V13.1652C65.6654 10.3122 63.3519 8 60.5002 8Z" fill="#BF282B"/>
<path fill-rule="evenodd" clip-rule="evenodd" d="M37.3975 36.2576C34.4084 40.0307 31.3168 42.5578 30.4899 41.9034C29.663 41.249 31.416 37.6597 34.4045 33.8866C37.3929 30.1141 40.4852 27.5858 41.3114 28.2408C42.1384 28.8946 40.3853 32.4839 37.3975 36.2576ZM41.2295 25.2008C40.6868 24.9423 39.9788 24.9344 39.1611 25.1532L42.5416 20.9558C42.1694 20.5135 41.9486 19.9404 41.9083 19.2873C41.8872 18.9218 41.9255 18.549 42.0154 18.1821L31.9891 30.5716C31.7505 30.8538 31.5125 31.146 31.2765 31.4474C27.5134 36.2543 26.0743 41.0222 27.6006 42.608C27.8875 42.9068 28.4474 43.5176 29.5671 43.7496C31.2778 44.1052 34.8394 41.7401 38.5523 36.9986C42.264 32.2572 43.7935 28.0848 42.8701 26.5764C42.5819 26.1024 42.0333 25.5829 41.2295 25.2008Z" fill="#BF282B"/>
<path fill-rule="evenodd" clip-rule="evenodd" d="M57.0828 34.0339C55.9307 35.4802 54.7541 36.4605 54.4566 36.2239C54.1578 35.9859 54.8499 34.6209 56.0027 33.174C57.1542 31.7277 58.3302 30.748 58.6283 30.9853C58.9264 31.2226 58.2343 32.5876 57.0828 34.0339ZM63.6897 26.768C63.6771 26.7575 63.6633 26.7515 63.6494 26.7436C63.6368 26.7304 63.6249 26.7158 63.611 26.7039C63.3414 26.4858 62.9474 26.5254 62.7312 26.7912L59.9867 30.1425C60.0118 29.5562 59.8763 29.075 59.5597 28.7518C58.6918 27.8647 58.0175 27.3577 57.529 27.0562C56.3247 26.3126 53.8928 27.6174 51.9296 30.2152C49.9657 32.8137 49.3536 35.5331 50.4185 36.4652C50.8475 36.8406 52.1999 37.7046 52.7889 37.9247C54.1149 38.4198 56.045 37.1738 57.9455 34.6593C57.9772 34.6163 58.0063 34.574 58.038 34.5317L63.7056 27.5824C63.9224 27.3154 63.9151 26.9511 63.6897 26.768Z" fill="#BF282B"/>
<path fill-rule="evenodd" clip-rule="evenodd" d="M43.47 21.074L53.6245 27.6928C54.1038 27.3127 54.583 27.0047 55.0471 26.7832C51.818 25.3455 52.4896 20.2041 47.4678 19.5947C47.6278 19.3316 47.7514 19.0592 47.842 18.7849L52.8796 20.2934C53.1896 20.3872 53.5175 20.2114 53.6107 19.9014C53.7039 19.5914 53.528 19.2641 53.218 19.1703L48.0548 17.6242C48.0429 17.6209 48.0317 17.6202 48.0218 17.6176C48.0013 16.8243 47.6813 16.1098 47.0686 15.6775C46.3798 15.1923 45.4788 15.1751 44.6426 15.5387L41.1531 11.8469C40.9304 11.6116 40.5595 11.5997 40.3236 11.8224C40.0882 12.0445 40.0763 12.4154 40.2991 12.6513L43.6472 16.1924C43.4409 16.3808 43.2479 16.595 43.0774 16.8376C42.07 18.268 42.1546 20.0686 43.2472 20.922C43.2525 20.9266 43.2565 20.9326 43.2624 20.9372L43.2882 20.955C43.3021 20.9649 43.314 20.9768 43.3279 20.9861C43.3728 21.0185 43.4224 21.0456 43.47 21.074Z" fill="#BF282B"/>
</svg>
