<svg width="93" height="52" viewBox="0 0 93 52" fill="none" xmlns="http://www.w3.org/2000/svg">
<rect width="93" height="52" fill="white"/>
<circle cx="46.4943" cy="26.4943" r="17.4943" fill="url(#paint0_linear)"/>
<path fill-rule="evenodd" clip-rule="evenodd" d="M39.6267 15.6229V28.0506C39.6269 28.2268 39.7082 28.3932 39.8471 28.5016C39.9861 28.6101 40.1672 28.6485 40.3382 28.6059L41.7964 28.2414C42.1361 28.1563 42.3744 27.8509 42.3742 27.5007V26.0735C42.3753 25.9879 42.4332 25.9135 42.5158 25.8912L52.5137 23.2093C53.0151 23.0765 53.3642 22.6228 53.3643 22.1041V18.6919C53.3643 18.173 53.0152 17.7191 52.5137 17.5861L41.0679 14.5195C40.7245 14.4275 40.3578 14.5001 40.0755 14.7163C39.7932 14.9324 39.6274 15.2674 39.6267 15.6229ZM42.3736 22.8314V17.9621C42.374 17.9031 42.4018 17.8477 42.4488 17.812C42.4958 17.7763 42.5567 17.7644 42.6136 17.7799L50.4734 19.8858C50.556 19.9079 50.6137 19.9825 50.6143 20.0681V20.7267C50.6133 20.8121 50.5558 20.8865 50.4734 20.909L42.6136 23.0179C42.5563 23.0332 42.4951 23.021 42.448 22.9848C42.401 22.9486 42.3735 22.8925 42.3736 22.8332V22.8314ZM50.6143 25.4878V26.9162C50.6135 27.0017 50.5559 27.0762 50.4734 27.0985L40.4749 29.7798C39.9737 29.9132 39.6247 30.3669 39.6243 30.8856V34.2978C39.6247 34.8165 39.9737 35.2702 40.4749 35.4036L51.9207 38.4683C52.2646 38.5613 52.6322 38.4889 52.9152 38.2724C53.1982 38.0559 53.3642 37.72 53.3643 37.3637V24.9385C53.3643 24.7623 53.2831 24.5959 53.1443 24.4875C53.0054 24.379 52.8244 24.3405 52.6534 24.3832L51.1952 24.7477C50.8544 24.8313 50.6146 25.1368 50.6143 25.4878ZM50.3744 35.2092L42.5152 33.1051C42.4325 33.0828 42.3747 33.0084 42.3736 32.9228V32.2612C42.3747 32.1756 42.4325 32.1012 42.5152 32.0789L50.3744 29.973C50.4313 29.9578 50.492 29.9697 50.539 30.0054C50.5859 30.041 50.6137 30.0963 50.6143 30.1553V35.0269C50.6143 35.0862 50.5867 35.142 50.5397 35.1781C50.4927 35.2141 50.4316 35.2263 50.3744 35.211V35.2092Z" fill="white"/>
<defs>
<linearGradient id="paint0_linear" x1="74.4991" y1="27.9884" x2="48.092" y2="-2.84982" gradientUnits="userSpaceOnUse">
<stop stop-color="#452D91"/>
<stop offset="1" stop-color="#0099FF"/>
</linearGradient>
</defs>
</svg>
