<svg width="93" height="52" viewBox="0 0 93 52" fill="none" xmlns="http://www.w3.org/2000/svg">
<rect width="93" height="52" fill="white"/>
<path d="M63.8325 26.1725C63.8325 34.7527 57.6167 41.8947 49.4388 43.3206L47.5497 32.5954C50.6088 32.0592 52.9488 29.3779 52.9488 26.1603C52.9488 22.9428 50.621 20.2615 47.5497 19.7252L49.4388 9C57.6167 10.4503 63.8325 17.5923 63.8325 26.1725Z" fill="#F75D34"/>
<path d="M45.2828 32.6077L43.3937 43.3329C35.2157 41.8947 29 34.7649 29 26.1847C29 17.6046 35.2157 10.4626 43.3937 9.03662L45.2828 19.7618C42.2237 20.2981 39.8836 22.9794 39.8836 26.1969C39.8958 29.3901 42.2237 32.0714 45.2828 32.6077Z" fill="#F75D34"/>
</svg>
