<svg width="67" height="58" viewBox="0 0 67 58" fill="none" xmlns="http://www.w3.org/2000/svg">
<path fill-rule="evenodd" clip-rule="evenodd" d="M21.9002 0L21.4011 44H66.8214L21.9002 0Z" fill="#EDF1FF"/>
<g opacity="0.6">
<mask id="path-2-inside-1" fill="white">
<path fill-rule="evenodd" clip-rule="evenodd" d="M11.8224 26.3501L13.9528 22.3752H34.7972L36.9276 26.3501C37.1461 26.0392 37.3534 25.7198 37.5489 25.3925L35.3958 21.3752H13.3542L11.2011 25.3925C11.3966 25.7198 11.6039 26.0392 11.8224 26.3501ZM11.2977 27.3293C11.0736 27.0304 10.8596 26.7236 10.6561 26.4094L0.472972 45.4094L0 46.2919L0.904954 46.7203L24.2914 57.7919L47.8438 46.718L48.75 46.2919L48.277 45.4093L38.0939 26.4094C37.8904 26.7236 37.6764 27.0304 37.4523 27.3293L47.3708 45.8354L24.2928 56.6862L1.37793 45.8378L11.2977 27.3293Z"/>
</mask>
<path d="M13.9528 22.3752V19.3752H12.1569L11.3086 20.9581L13.9528 22.3752ZM11.8224 26.3501L9.36821 28.0754L12.1674 32.0572L14.4666 27.7673L11.8224 26.3501ZM34.7972 22.3752L37.4414 20.9581L36.5931 19.3752H34.7972V22.3752ZM36.9276 26.3501L34.2834 27.7673L36.5826 32.0572L39.3818 28.0754L36.9276 26.3501ZM37.5489 25.3925L40.1245 26.9307L40.9954 25.4724L40.1931 23.9754L37.5489 25.3925ZM35.3958 21.3752L38.04 19.9581L37.1917 18.3752H35.3958V21.3752ZM13.3542 21.3752V18.3752H11.5583L10.71 19.9581L13.3542 21.3752ZM11.2011 25.3925L8.55693 23.9753L7.75457 25.4724L8.62545 26.9307L11.2011 25.3925ZM10.6561 26.4094L13.1741 24.7785L10.412 20.5141L8.01191 24.9923L10.6561 26.4094ZM11.2977 27.3293L13.9418 28.7464L14.8454 27.0604L13.6981 25.5299L11.2977 27.3293ZM0.472972 45.4094L-2.1712 43.9923L-2.17121 43.9923L0.472972 45.4094ZM0 46.2919L-2.64418 44.8748L-4.13378 47.6541L-1.28367 49.0034L0 46.2919ZM0.904954 46.7203L-0.378719 49.4318L-0.378719 49.4318L0.904954 46.7203ZM24.2914 57.7919L23.0077 60.5034L24.287 61.109L25.5678 60.5068L24.2914 57.7919ZM47.8438 46.718L49.1203 49.4329L49.1203 49.4329L47.8438 46.718ZM48.75 46.2919L50.0265 49.0068L52.8877 47.6615L51.3942 44.8748L48.75 46.2919ZM48.277 45.4093L45.6328 46.8265L45.6328 46.8265L48.277 45.4093ZM38.0939 26.4094L40.7381 24.9923L38.338 20.5141L35.5759 24.7785L38.0939 26.4094ZM37.4523 27.3293L35.0519 25.5299L33.9046 27.0604L34.8082 28.7464L37.4523 27.3293ZM47.3708 45.8354L48.6472 48.5503L51.5085 47.205L50.0149 44.4182L47.3708 45.8354ZM24.2928 56.6862L23.0092 59.3977L24.2884 60.0033L25.5693 59.4011L24.2928 56.6862ZM1.37793 45.8378L-1.26625 44.4207L-2.75585 47.2L0.0942535 48.5493L1.37793 45.8378ZM11.3086 20.9581L9.17827 24.9329L14.4666 27.7673L16.597 23.7924L11.3086 20.9581ZM34.7972 19.3752H13.9528V25.3752H34.7972V19.3752ZM39.5717 24.933L37.4414 20.9581L32.153 23.7924L34.2834 27.7673L39.5717 24.933ZM39.3818 28.0754C39.643 27.7039 39.8908 27.322 40.1245 26.9307L34.9732 23.8543C34.816 24.1176 34.6492 24.3745 34.4733 24.6248L39.3818 28.0754ZM40.1931 23.9754L38.04 19.9581L32.7517 22.7924L34.9047 26.8097L40.1931 23.9754ZM35.3958 18.3752H13.3542V24.3752H35.3958V18.3752ZM10.71 19.9581L8.55693 23.9753L13.8453 26.8097L15.9983 22.7924L10.71 19.9581ZM8.62545 26.9307C8.85917 27.322 9.107 27.7039 9.36821 28.0754L14.2767 24.6248C14.1008 24.3745 13.934 24.1175 13.7768 23.8543L8.62545 26.9307ZM8.13811 28.0403C8.37897 28.4122 8.6322 28.7752 8.89722 29.1287L13.6981 25.5299C13.5151 25.2857 13.3402 25.0351 13.1741 24.7785L8.13811 28.0403ZM8.01191 24.9923L-2.1712 43.9923L3.11715 46.8266L13.3003 27.8266L8.01191 24.9923ZM-2.17121 43.9923L-2.64418 44.8748L2.64418 47.7091L3.11715 46.8266L-2.17121 43.9923ZM-1.28367 49.0034L-0.378719 49.4318L2.18863 44.0088L1.28367 43.5804L-1.28367 49.0034ZM-0.378719 49.4318L23.0077 60.5034L25.575 55.0804L2.18863 44.0088L-0.378719 49.4318ZM25.5678 60.5068L49.1203 49.4329L46.5673 44.0031L23.0149 55.077L25.5678 60.5068ZM49.1203 49.4329L50.0265 49.0068L47.4735 43.577L46.5673 44.0031L49.1203 49.4329ZM51.3942 44.8748L50.9211 43.9921L45.6328 46.8265L46.1058 47.7091L51.3942 44.8748ZM50.9211 43.9921L40.7381 24.9923L35.4497 27.8266L45.6328 46.8265L50.9211 43.9921ZM39.8528 29.1287C40.1178 28.7752 40.371 28.4122 40.6119 28.0403L35.5759 24.7785C35.4098 25.0351 35.2349 25.2857 35.0519 25.5299L39.8528 29.1287ZM50.0149 44.4182L40.0965 25.9121L34.8082 28.7464L44.7266 47.2525L50.0149 44.4182ZM25.5693 59.4011L48.6472 48.5503L46.0943 43.1205L23.0163 53.9713L25.5693 59.4011ZM0.0942535 48.5493L23.0092 59.3977L25.5765 53.9747L2.6616 43.1264L0.0942535 48.5493ZM8.65348 25.9121L-1.26625 44.4207L4.0221 47.255L13.9418 28.7464L8.65348 25.9121Z" fill="black" mask="url(#path-2-inside-1)"/>
</g>
<circle cx="33.8333" cy="42" r="3.5" fill="#5C6DE6"/>
<circle opacity="0.6" cx="23.9167" cy="15.75" r="10.75" stroke="black" stroke-width="3"/>
</svg>
