<svg width="63" height="58" viewBox="0 0 63 58" fill="none" xmlns="http://www.w3.org/2000/svg">
<path fill-rule="evenodd" clip-rule="evenodd" d="M17.552 48.8552H62.9044V0.0688477C37.6909 0.955218 17.5225 21.7048 17.5225 47.1719C17.5225 47.7354 17.5324 48.2965 17.552 48.8552Z" fill="#F9ECE3"/>
<g opacity="0.6">
<path fill-rule="evenodd" clip-rule="evenodd" d="M43.8697 32.8003C47.507 32.8003 50.4647 29.8375 50.4647 26.1937C50.4647 22.55 47.507 19.5871 43.8697 19.5871C40.2323 19.5871 37.2746 22.55 37.2746 26.1937C37.2746 26.4146 37.293 26.6354 37.3114 26.8562L33.1045 28.3285C32.2044 26.9483 30.7898 25.9177 29.1365 25.5128V17.1764C32.0207 16.4771 34.17 13.8639 34.17 10.7538C34.17 7.11006 31.2124 4.14722 27.575 4.14722C23.9376 4.14722 20.98 7.11006 20.98 10.7538C20.98 13.8639 23.1293 16.4771 26.0135 17.1764V25.4944C24.1397 25.9545 22.5782 27.2059 21.7148 28.899L13.2827 26.8562C13.2827 23.2125 10.325 20.2496 6.68768 20.2496C3.05031 20.2496 0.0926514 23.2125 0.0926514 26.8562C0.0926514 30.5 3.05031 33.4628 6.68768 33.4628C9.24118 33.4628 11.464 32.009 12.5479 29.8743L20.98 31.917C20.98 33.4444 21.5127 34.8431 22.3761 35.9656L18.9776 40.2719C18.1325 39.8854 17.214 39.6646 16.222 39.6646C12.5846 39.6646 9.62697 42.6274 9.62697 46.2712C9.62697 49.9149 12.5846 52.8778 16.222 52.8778C19.8594 52.8778 22.817 49.9149 22.817 46.2712C22.817 44.7437 22.2843 43.3267 21.4209 42.2042L24.8194 37.8979C25.6645 38.2844 26.583 38.5052 27.575 38.5052C28.1261 38.5052 28.6589 38.4316 29.1732 38.3028L33.3066 46.1792C31.9288 47.3937 31.0654 49.1604 31.0654 51.1479C31.0654 54.7917 34.0231 57.7545 37.6604 57.7545C41.2978 57.7545 44.2555 54.7917 44.2555 51.1479C44.2555 47.5042 41.2978 44.5413 37.6604 44.5413C37.1093 44.5413 36.5766 44.6149 36.0622 44.7437L31.9288 36.8674C33.3066 35.6528 34.17 33.8861 34.17 31.8986C34.17 31.6778 34.1516 31.4569 34.1333 31.2361L38.3401 29.7639C39.5159 31.6042 41.555 32.8003 43.8697 32.8003ZM41.1325 51.1847C41.1325 53.0986 39.571 54.6628 37.6604 54.6628C35.7499 54.6628 34.1884 53.0986 34.1884 51.1847C34.1884 49.2708 35.7499 47.7066 37.6604 47.7066C39.571 47.7066 41.1325 49.2524 41.1325 51.1847ZM27.5566 7.27569C25.6461 7.27569 24.0846 8.83993 24.0846 10.7538C24.0846 12.6677 25.6461 14.2319 27.5566 14.2319C29.4672 14.2319 31.0287 12.6677 31.0287 10.7538C31.0287 8.83993 29.4672 7.27569 27.5566 7.27569ZM6.65094 30.3528C4.7404 30.3528 3.1789 28.7885 3.1789 26.8746C3.1789 24.9608 4.7404 23.3965 6.65094 23.3965C8.56147 23.3965 10.123 24.9608 10.123 26.8746C10.123 28.7885 8.57985 30.3528 6.65094 30.3528ZM12.7316 46.308C12.7316 48.2219 14.2931 49.7861 16.2036 49.7861C18.1325 49.7861 19.6757 48.2219 19.6757 46.308C19.6757 44.3941 18.1142 42.8299 16.2036 42.8299C14.2931 42.8299 12.7316 44.3941 12.7316 46.308ZM24.0846 31.917C24.0846 30.0031 25.6461 28.4389 27.5566 28.4389C29.4672 28.4389 31.0287 30.0031 31.0287 31.917C31.0287 33.8309 29.4672 35.3951 27.5566 35.3951C25.6461 35.3951 24.0846 33.8493 24.0846 31.917ZM47.3417 26.1753C47.3417 24.2615 45.7802 22.6972 43.8697 22.6972C41.9408 22.6972 40.3976 24.2615 40.3976 26.1753C40.3976 28.0892 41.9591 29.6535 43.8697 29.6535C45.7802 29.6535 47.3417 28.0892 47.3417 26.1753Z" fill="black"/>
<path d="M31.5659 32.034C31.5659 29.7872 29.7818 28 27.5389 28C25.2961 28 23.512 29.7872 23.512 32.034C23.512 34.2808 25.2961 36.0681 27.5389 36.0681C29.7818 36.0681 31.5659 34.2808 31.5659 32.034Z" fill="#FA6400"/>
</g>
</svg>
