<svg width="56" height="62" viewBox="0 0 56 62" fill="none" xmlns="http://www.w3.org/2000/svg">
<path fill-rule="evenodd" clip-rule="evenodd" d="M27.8383 55C42.9995 55 55.2902 42.6878 55.2902 27.5C55.2902 12.3122 42.9995 0 27.8383 0" fill="#FFF4DE"/>
<path fill-rule="evenodd" clip-rule="evenodd" d="M29.7202 22.1516H34.4755C37.1682 22.1516 39.3453 19.9707 39.3453 17.2732C39.3453 14.5758 37.1682 12.3948 34.4755 12.3948H29.7202C29.3764 12.3948 28.9754 12.4522 28.6889 12.567C28.116 11.4765 27.3139 10.5009 26.3972 9.69737C24.5639 8.14776 22.2722 7.28687 19.8659 7.28687C17.4596 7.28687 15.1679 8.14776 13.3346 9.69737C12.3606 10.5009 11.6158 11.4765 11.0429 12.567C10.6991 12.4522 10.3554 12.3948 10.0116 12.3948H5.25633C2.56359 12.3948 0.386475 14.5758 0.386475 17.2732C0.386475 19.9707 2.56359 22.1516 5.25633 22.1516H10.0116C10.3554 22.1516 10.7564 22.0942 11.0429 21.9795L11.2147 22.3238C9.95431 22.783 8.80846 23.4717 7.83449 24.39C6.05842 26.0543 5.08445 28.3501 4.96987 30.7606L3.88131 44.5923V44.7071C3.76673 47.2897 4.6834 49.7576 6.51676 51.6516C8.17824 53.4308 10.4126 54.4065 12.8189 54.5212V55.2673C12.8189 58.8831 15.7408 61.7527 19.293 61.7527H20.3815C23.9909 61.7527 26.8556 58.8257 26.8556 55.2673V54.5212C29.2618 54.4065 31.4963 53.3734 33.1577 51.6516C34.9338 49.7576 35.9078 47.2897 35.7932 44.7071V44.5923L34.7619 30.7606C34.6473 28.3501 33.6161 26.0543 31.8973 24.39C30.9233 23.4717 29.7775 22.7256 28.517 22.3238L28.6889 21.9795C28.9754 22.0942 29.3764 22.1516 29.7202 22.1516ZM23.7045 55.3247C23.7045 57.1613 22.2149 58.6535 20.3815 58.6535H19.293C17.4596 58.6535 15.97 57.1613 15.97 55.3247V44.3053C15.97 43.2722 16.4283 42.3539 17.1732 41.78C17.7461 41.3209 18.4909 41.0339 19.293 41.0339H20.3815C20.7253 41.0339 21.069 41.0913 21.3555 41.2061C21.642 41.3209 21.9284 41.4356 22.2149 41.6078L22.2149 41.6079C22.3868 41.7226 22.5587 41.8374 22.7305 42.0096C23.3034 42.5835 23.7045 43.4444 23.7045 44.3627V54.1195V55.3247ZM31.6108 30.9328C31.439 27.604 28.6889 24.9639 25.366 24.9639V25.0213H23.017V23.4143C24.9076 22.4386 26.3399 20.602 26.6837 18.4211H29.8348V18.995H34.59C35.5067 18.995 36.2515 18.2489 36.2515 17.3306C36.2515 16.4123 35.5067 15.6662 34.59 15.6662H29.8348V16.2402H26.6837C26.1681 12.9688 23.3607 10.5009 19.9805 10.5009C16.6002 10.5009 13.7929 13.0262 13.2773 16.2402H10.1262V15.6662H5.37091C4.45424 15.6662 3.70943 16.4123 3.70943 17.3306C3.70943 18.2489 4.45424 18.995 5.37091 18.995H10.1262V18.4211H13.2773C13.621 20.602 14.996 22.4386 16.944 23.4143V25.0213H14.4804C11.1002 25.0213 8.35012 27.6614 8.23553 30.9901L7.14698 44.8792C6.9751 48.2654 9.55326 51.1351 12.8762 51.3646V44.3053C12.8762 40.7469 15.7408 37.8199 19.3503 37.8199H20.4388C23.9909 37.8199 26.9129 40.6895 26.9129 44.3053V51.3646C30.2358 51.1351 32.7567 48.2654 32.6421 44.8792L31.6108 30.9328Z" fill="black" fill-opacity="0.6"/>
<path d="M24.392 17.2733C24.392 14.748 22.3867 12.7393 19.8659 12.7393C17.345 12.7393 15.3398 14.748 15.3398 17.2733C15.3398 19.7986 17.345 21.8073 19.8659 21.8073C22.3867 21.8073 24.392 19.7986 24.392 17.2733Z" fill="#ECB330"/>
</svg>
