<svg width="70" height="58" viewBox="0 0 70 58" fill="none" xmlns="http://www.w3.org/2000/svg">
<path opacity="0.7" fill-rule="evenodd" clip-rule="evenodd" d="M68.8302 0L69.3293 44H23.909L68.8302 0Z" fill="#ECEFFD"/>
<path fill-rule="evenodd" clip-rule="evenodd" d="M19.984 49.534C19.984 47.5657 18.4211 46 16.4562 46C14.4913 46 12.9283 47.5657 12.9283 49.534C12.9283 51.5024 14.4913 53.0681 16.4562 53.0681C18.4211 53.0681 19.984 51.5024 19.984 49.534Z" fill="#5C6DE6"/>
<path fill-rule="evenodd" clip-rule="evenodd" d="M47.935 49.534C47.935 47.5657 46.372 46 44.4071 46C42.4422 46 40.8793 47.5657 40.8793 49.534C40.8793 51.5024 42.4422 53.0681 44.4071 53.0681C46.372 53.0681 47.935 51.5024 47.935 49.534Z" fill="#5C6DE6"/>
<g opacity="0.6">
<path fill-rule="evenodd" clip-rule="evenodd" d="M52.5887 33.8H56.8513C60.6945 33.8 63.839 36.95 63.839 40.8V49.2C63.839 49.97 63.2101 50.6 62.4415 50.6H52.5189C51.89 54.59 48.3961 57.6 44.2733 57.6C40.1506 57.6 36.7266 54.59 36.0278 50.6H24.5679C23.939 54.59 20.4451 57.6 16.3224 57.6C12.1996 57.6 8.77561 54.59 8.07684 50.6H2.34689C1.57824 50.6 0.949341 49.97 0.949341 49.2V40.8C0.949341 36.95 4.09382 33.8 7.93708 33.8H8.00696C8.56598 25.05 14.0863 17.63 21.8427 14.48C20.1656 13.36 19.1175 11.47 19.1175 9.3C19.1175 5.8 21.9126 3 25.4064 3C27.363 3 29.1099 3.98 30.2979 5.38C31.4858 3.91 33.2327 3 35.1893 3C38.6831 3 41.4782 5.8 41.4782 9.3C41.4782 11.47 40.3602 13.36 38.753 14.48C46.5094 17.63 52.0297 25.05 52.5887 33.8ZM35.1893 5.8C33.2327 5.8 31.6954 7.34 31.6954 9.3V12.8H35.1893C37.1458 12.8 38.6831 11.26 38.6831 9.3C38.6831 7.34 37.1458 5.8 35.1893 5.8ZM31.6954 15.67C41.3385 16.37 49.0949 24.14 49.7936 33.8H31.6954V15.67ZM28.9003 9.3C28.9003 7.34 27.363 5.8 25.4064 5.8C23.4499 5.8 21.9126 7.34 21.9126 9.3C21.9126 11.26 23.4499 12.8 25.4064 12.8H28.9003V9.3ZM28.9003 15.67V33.8H10.8021C11.5008 24.07 19.2572 16.37 28.9003 15.67ZM10.7322 49.2C10.7322 52.28 13.2478 54.8 16.3224 54.8C19.397 54.8 21.9126 52.28 21.9126 49.2C21.9126 46.12 19.397 43.6 16.3224 43.6C13.2478 43.6 10.7322 46.12 10.7322 49.2ZM44.2733 54.8C41.1987 54.8 38.6831 52.28 38.6831 49.2C38.6831 46.12 41.1987 43.6 44.2733 43.6C47.3479 43.6 49.8635 46.12 49.8635 49.2C49.8635 52.28 47.3479 54.8 44.2733 54.8ZM52.5189 47.8H61.0439V40.8C61.0439 38.49 59.1572 36.6 56.8513 36.6H7.93708C5.63113 36.6 3.74444 38.49 3.74444 40.8V47.8H8.07684C8.70573 43.81 12.1996 40.8 16.3224 40.8C20.4451 40.8 23.8691 43.81 24.5679 47.8H36.0278C36.6567 43.81 40.1506 40.8 44.2733 40.8C48.3961 40.8 51.8201 43.81 52.5189 47.8Z" fill="black"/>
</g>
</svg>
