<svg width="36" height="36" viewBox="0 0 36 36" fill="none" xmlns="http://www.w3.org/2000/svg">
<path fill-rule="evenodd" clip-rule="evenodd" d="M35.184 25.0712L22.0332 2.28555L21.5789 1.5L20.3485 2.20983L21.0347 3.39289L1.68467 24.9245L1.23038 24.1389L0 24.8487L0.681439 26.0318L3.94193 31.6773L4.6281 32.8651L5.85848 32.1553L5.40419 31.3697L10.1459 30.3712C10.5434 32.9124 12.7439 34.8574 15.3939 34.8574H15.8435C18.768 34.8574 21.153 32.4771 21.153 29.5478V28.043L33.7218 25.3835L34.4079 26.5713L35.6383 25.8614L35.184 25.0712ZM19.7333 29.5478C19.7333 31.6915 17.9871 33.4377 15.8435 33.4377H15.3939C13.4253 33.4377 11.7927 31.9707 11.5371 30.0778L19.7333 28.3458V29.5478ZM32.9741 24.0869L20.2917 26.77L12.8905 28.3364L12.4079 28.4405L10.6475 28.8143L10.0843 28.9326L4.66123 30.0826L2.43236 26.2211L21.7824 4.69898V4.69424L32.9741 24.0869Z" fill="#FDCC66"/>
<path d="M35.184 25.0712L35.4007 24.9466L35.4005 24.9462L35.184 25.0712ZM22.0332 2.28555L22.2497 2.16058L22.2496 2.16039L22.0332 2.28555ZM21.5789 1.5L21.7953 1.37484L21.6703 1.15865L21.454 1.28345L21.5789 1.5ZM20.3485 2.20983L20.2236 1.99329L20.0065 2.1185L20.1323 2.33526L20.3485 2.20983ZM21.0347 3.39289L21.2206 3.55999L21.3422 3.42475L21.2509 3.26746L21.0347 3.39289ZM1.68467 24.9245L1.46825 25.0496L1.64056 25.3476L1.87061 25.0916L1.68467 24.9245ZM1.23038 24.1389L1.44679 24.0138L1.32177 23.7976L1.10545 23.9224L1.23038 24.1389ZM0 24.8487L-0.124931 24.6322L-0.341327 24.757L-0.216633 24.9735L0 24.8487ZM0.681439 26.0318L0.464806 26.1566L0.46495 26.1568L0.681439 26.0318ZM3.94193 31.6773L3.72544 31.8024L3.72546 31.8024L3.94193 31.6773ZM4.6281 32.8651L4.41163 32.9902L4.53661 33.2065L4.75304 33.0817L4.6281 32.8651ZM5.85848 32.1553L5.98341 32.3718L6.20018 32.2468L6.0749 32.0301L5.85848 32.1553ZM5.40419 31.3697L5.35267 31.1251L5.01503 31.1962L5.18777 31.4949L5.40419 31.3697ZM10.1459 30.3712L10.3929 30.3326L10.3521 30.0723L10.0944 30.1266L10.1459 30.3712ZM21.153 28.043L21.1012 27.7984L20.903 27.8403V28.043H21.153ZM33.7218 25.3835L33.9382 25.2584L33.8475 25.1013L33.67 25.1389L33.7218 25.3835ZM34.4079 26.5713L34.1915 26.6963L34.3164 26.9127L34.5329 26.7878L34.4079 26.5713ZM35.6383 25.8614L35.7632 26.078L35.9794 25.9532L35.855 25.7368L35.6383 25.8614ZM19.7333 28.3458H19.9833V28.0375L19.6816 28.1012L19.7333 28.3458ZM20.2917 26.77L20.24 26.5254L20.24 26.5254L20.2917 26.77ZM12.8905 28.3364L12.8388 28.0918L12.8378 28.092L12.8905 28.3364ZM12.4079 28.4405L12.4598 28.685L12.4606 28.6849L12.4079 28.4405ZM10.6475 28.8143L10.6989 29.059L10.6994 29.0589L10.6475 28.8143ZM10.0843 28.9326L10.0329 28.688L10.0325 28.6881L10.0843 28.9326ZM2.43236 26.2211L2.24645 26.0539L2.12512 26.1889L2.21584 26.3461L2.43236 26.2211ZM21.7824 4.69898L21.9683 4.86612L22.0324 4.79484V4.69898H21.7824ZM21.7824 4.69424L21.9989 4.56928L21.5324 3.7609V4.69424H21.7824ZM35.4005 24.9462L22.2497 2.16058L21.8167 2.41052L34.9675 25.1961L35.4005 24.9462ZM22.2496 2.16039L21.7953 1.37484L21.3625 1.62516L21.8168 2.4107L22.2496 2.16039ZM21.454 1.28345L20.2236 1.99329L20.4734 2.42638L21.7038 1.71655L21.454 1.28345ZM20.1323 2.33526L20.8184 3.51831L21.2509 3.26746L20.5648 2.0844L20.1323 2.33526ZM20.8487 3.22578L1.49872 24.7574L1.87061 25.0916L21.2206 3.55999L20.8487 3.22578ZM1.90108 24.7993L1.44679 24.0138L1.01396 24.2641L1.46825 25.0496L1.90108 24.7993ZM1.10545 23.9224L-0.124931 24.6322L0.124931 25.0653L1.35531 24.3555L1.10545 23.9224ZM-0.216633 24.9735L0.464806 26.1566L0.898072 25.907L0.216633 24.724L-0.216633 24.9735ZM0.46495 26.1568L3.72544 31.8024L4.15842 31.5523L0.897928 25.9068L0.46495 26.1568ZM3.72546 31.8024L4.41163 32.9902L4.84458 32.7401L4.15841 31.5523L3.72546 31.8024ZM4.75304 33.0817L5.98341 32.3718L5.73355 31.9387L4.50317 32.6486L4.75304 33.0817ZM6.0749 32.0301L5.6206 31.2446L5.18777 31.4949L5.64206 32.2804L6.0749 32.0301ZM5.4557 31.6144L10.1974 30.6159L10.0944 30.1266L5.35267 31.1251L5.4557 31.6144ZM9.89887 30.4099C10.3151 33.0708 12.6188 35.1074 15.3939 35.1074V34.6074C12.8689 34.6074 10.7716 32.754 10.3929 30.3326L9.89887 30.4099ZM15.3939 35.1074H15.8435V34.6074H15.3939V35.1074ZM15.8435 35.1074C18.9059 35.1074 21.403 32.6153 21.403 29.5478H20.903C20.903 32.3389 18.63 34.6074 15.8435 34.6074V35.1074ZM21.403 29.5478V28.043H20.903V29.5478H21.403ZM21.2047 28.2876L33.7735 25.6281L33.67 25.1389L21.1012 27.7984L21.2047 28.2876ZM33.5053 25.5085L34.1915 26.6963L34.6244 26.4462L33.9382 25.2584L33.5053 25.5085ZM34.5329 26.7878L35.7632 26.078L35.5134 25.6449L34.283 26.3547L34.5329 26.7878ZM35.855 25.7368L35.4007 24.9466L34.9673 25.1957L35.4216 25.986L35.855 25.7368ZM19.4833 29.5478C19.4833 31.5535 17.8491 33.1877 15.8435 33.1877V33.6877C18.1252 33.6877 19.9833 31.8296 19.9833 29.5478H19.4833ZM15.8435 33.1877H15.3939V33.6877H15.8435V33.1877ZM15.3939 33.1877C13.5517 33.1877 12.0239 31.8146 11.7849 30.0444L11.2894 30.1113C11.5615 32.1269 13.2988 33.6877 15.3939 33.6877V33.1877ZM11.5888 30.3224L19.785 28.5904L19.6816 28.1012L11.4854 29.8332L11.5888 30.3224ZM19.4833 28.3458V29.5478H19.9833V28.3458H19.4833ZM32.9223 23.8423L20.24 26.5254L20.3435 27.0146L33.0258 24.3314L32.9223 23.8423ZM20.24 26.5254L12.8388 28.0918L12.9423 28.581L20.3435 27.0146L20.24 26.5254ZM12.8378 28.092L12.3552 28.1961L12.4606 28.6849L12.9433 28.5808L12.8378 28.092ZM12.3559 28.1959L10.5955 28.5698L10.6994 29.0589L12.4598 28.685L12.3559 28.1959ZM10.5961 28.5697L10.0329 28.688L10.1357 29.1773L10.6989 29.059L10.5961 28.5697ZM10.0325 28.6881L4.60937 29.838L4.71309 30.3271L10.1362 29.1772L10.0325 28.6881ZM4.87775 29.9576L2.64888 26.0961L2.21584 26.3461L4.44471 30.2075L4.87775 29.9576ZM2.61827 26.3882L21.9683 4.86612L21.5965 4.53183L2.24645 26.0539L2.61827 26.3882ZM22.0324 4.69898V4.69424H21.5324V4.69898H22.0324ZM21.5659 4.81921L32.7575 24.2118L33.1906 23.9619L21.9989 4.56928L21.5659 4.81921Z" fill="#FDCC66"/>
<path fill-rule="evenodd" clip-rule="evenodd" d="M20.0817 7.32677L20.7923 8.55591L16.0027 11.3247L15.2922 10.0955L20.0817 7.32677Z" fill="#FDCC66" stroke="#FDCC66" stroke-width="0.5"/>
<path fill-rule="evenodd" clip-rule="evenodd" d="M19.0043 0.636948L20.1801 1.43253L17.08 6.01409L15.9042 5.21852L19.0043 0.636948Z" fill="#FDCC66" stroke="#FDCC66" stroke-width="0.5"/>
<path fill-rule="evenodd" clip-rule="evenodd" d="M20.7499 15.4187L20.852 16.8347L15.3344 17.2323L15.2324 15.8164L20.7499 15.4187Z" fill="#FDCC66" stroke="#FDCC66" stroke-width="0.5"/>
</svg>
