<svg width="31" height="34" viewBox="0 0 31 34" fill="none" xmlns="http://www.w3.org/2000/svg">
<path fill-rule="evenodd" clip-rule="evenodd" d="M8.05215 11.3832C8.05215 11.9293 8.49488 12.372 9.04102 12.372H23.874C24.4201 12.372 24.8628 11.9293 24.8628 11.3832C24.8628 10.837 24.4201 10.3943 23.874 10.3943H9.04102C8.49488 10.3943 8.05215 10.837 8.05215 11.3832ZM9.04102 18.3052C8.49488 18.3052 8.05215 17.8625 8.05215 17.3163C8.05215 16.7702 8.49488 16.3275 9.04102 16.3275H23.874C24.4201 16.3275 24.8628 16.7702 24.8628 17.3163C24.8628 17.8625 24.4201 18.3052 23.874 18.3052H9.04102ZM9.04102 24.2384C8.49488 24.2384 8.05215 23.7956 8.05215 23.2495C8.05215 22.7034 8.49488 22.2606 9.04102 22.2606H23.874C24.4201 22.2606 24.8628 22.7034 24.8628 23.2495C24.8628 23.7956 24.4201 24.2384 23.874 24.2384H9.04102Z" fill="#839BF0"/>
<path fill-rule="evenodd" clip-rule="evenodd" d="M28.4279 1H2.76954C1.79225 1 1 1.88546 1 2.97773V31.6548C1 32.747 1.79225 33.6325 2.76954 33.6325H28.4279C29.4052 33.6325 30.1975 32.747 30.1975 31.6548V2.97773C30.1975 1.88546 29.4052 1 28.4279 1ZM2.7175 4.06812C2.7175 3.79614 2.9177 3.57625 3.16466 3.57625H28.0328C28.2801 3.57625 28.48 3.79647 28.48 4.06812V31.4231C28.48 31.6951 28.2798 31.915 28.0328 31.915H3.16466C2.9174 31.915 2.7175 31.6948 2.7175 31.4231V4.06812Z" fill="#839BF0"/>
<path d="M2.76954 1.25H28.4279V0.75H2.76954V1.25ZM1.25 2.97773C1.25 1.99665 1.95575 1.25 2.76954 1.25V0.75C1.62876 0.75 0.75 1.77426 0.75 2.97773H1.25ZM1.25 31.6548V2.97773H0.75V31.6548H1.25ZM2.76954 33.3825C1.95575 33.3825 1.25 32.6358 1.25 31.6548H0.75C0.75 32.8582 1.62876 33.8825 2.76954 33.8825V33.3825ZM28.4279 33.3825H2.76954V33.8825H28.4279V33.3825ZM29.9475 31.6548C29.9475 32.6358 29.2417 33.3825 28.4279 33.3825V33.8825C29.5687 33.8825 30.4475 32.8582 30.4475 31.6548H29.9475ZM29.9475 2.97773V31.6548H30.4475V2.97773H29.9475ZM28.4279 1.25C29.2417 1.25 29.9475 1.99665 29.9475 2.97773H30.4475C30.4475 1.77426 29.5687 0.75 28.4279 0.75V1.25ZM3.16466 3.32625C2.75784 3.32625 2.4675 3.68091 2.4675 4.06812H2.9675C2.9675 3.91137 3.07755 3.82625 3.16466 3.82625V3.32625ZM28.0328 3.32625H3.16466V3.82625H28.0328V3.32625ZM28.73 4.06812C28.73 3.68146 28.4401 3.32625 28.0328 3.32625V3.82625C28.12 3.82625 28.23 3.91147 28.23 4.06812H28.73ZM28.73 31.4231V4.06812H28.23V31.4231H28.73ZM28.0328 32.165C28.4396 32.165 28.73 31.8103 28.73 31.4231H28.23C28.23 31.5799 28.1199 31.665 28.0328 31.665V32.165ZM3.16466 32.165H28.0328V31.665H3.16466V32.165ZM2.4675 31.4231C2.4675 31.8098 2.75733 32.165 3.16466 32.165V31.665C3.07746 31.665 2.9675 31.5798 2.9675 31.4231H2.4675ZM2.4675 4.06812V31.4231H2.9675V4.06812H2.4675Z" fill="#839BF0"/>
</svg>
