<svg width="112" height="112" viewBox="0 0 112 112" fill="none" xmlns="http://www.w3.org/2000/svg">
<circle cx="56" cy="56" r="56" fill="#FFF6E3"/>
<path fill-rule="evenodd" clip-rule="evenodd" d="M55.9562 43.7891C56.2473 43.7891 56.5147 43.9502 56.6505 44.2075L65.8053 61.4988C65.8969 61.6702 65.9207 61.8697 65.872 62.0576L63.4982 71.2876H64.1905C64.6247 71.2876 64.976 71.6389 64.976 72.0731C64.976 72.5069 64.6247 72.8586 64.1905 72.8586H63.0947L61.8377 77.7582C61.7495 78.1073 61.4369 78.3535 61.0767 78.3574H51.146C50.7912 78.3535 50.4821 78.1146 50.3889 77.7724L49.0318 72.8586H47.722C47.2882 72.8586 46.9364 72.5069 46.9364 72.0731C46.9364 71.6389 47.2882 71.2876 47.722 71.2876H48.598L46.0451 62.0714C45.9914 61.8812 46.014 61.6775 46.1076 61.5034L55.262 44.2075C55.3981 43.9502 55.6655 43.7891 55.9562 43.7891ZM57.3432 59.7191C57.3432 58.9531 56.7222 58.3321 55.9562 58.3321C55.1906 58.3329 54.5704 58.9535 54.5697 59.7191C54.5697 60.4846 55.1903 61.1056 55.9562 61.1056C56.7222 61.1056 57.3428 60.485 57.3432 59.7191ZM60.4677 76.7863H51.744L50.662 72.8586H61.473L60.4677 76.7863ZM50.227 71.2876H61.8761L64.2745 61.961L56.7418 47.7382V56.8677C58.169 57.2608 59.0861 58.6485 58.8874 60.1157C58.6891 61.5828 57.4368 62.6774 55.9562 62.6774C54.4761 62.6774 53.2234 61.5828 53.0251 60.1157C52.8268 58.6485 53.7435 57.2608 55.1707 56.8677V47.7382L47.6418 61.9537L50.227 71.2876Z" fill="#FDCC66"/>
<path d="M56.6505 44.2075L56.5178 44.2775L56.5179 44.2777L56.6505 44.2075ZM65.8053 61.4988L65.6727 61.569L65.673 61.5695L65.8053 61.4988ZM65.872 62.0576L65.7268 62.02L65.7267 62.0203L65.872 62.0576ZM63.4982 71.2876L63.3529 71.2502L63.3047 71.4376H63.4982V71.2876ZM63.0947 72.8586V72.7086H62.9783L62.9494 72.8214L63.0947 72.8586ZM61.8377 77.7582L61.6924 77.721L61.6923 77.7215L61.8377 77.7582ZM61.0767 78.3574V78.5074L61.0783 78.5073L61.0767 78.3574ZM51.146 78.3574L51.1444 78.5074H51.146V78.3574ZM50.3889 77.7724L50.5336 77.733L50.5334 77.7325L50.3889 77.7724ZM49.0318 72.8586L49.1764 72.8187L49.146 72.7086H49.0318V72.8586ZM48.598 71.2876V71.4376H48.7952L48.7426 71.2475L48.598 71.2876ZM46.0451 62.0714L46.1896 62.0314L46.1894 62.0307L46.0451 62.0714ZM46.1076 61.5034L46.2397 61.5744L46.2401 61.5735L46.1076 61.5034ZM55.262 44.2075L55.3946 44.2777L55.3946 44.2777L55.262 44.2075ZM55.9562 58.3321V58.1821H55.9561L55.9562 58.3321ZM57.3432 59.7191L57.4932 59.7191V59.7191H57.3432ZM54.5697 59.7191L54.4197 59.7189V59.7191H54.5697ZM51.744 76.7863L51.5994 76.8261L51.6297 76.9363H51.744V76.7863ZM60.4677 76.7863V76.9363H60.5841L60.613 76.8235L60.4677 76.7863ZM50.662 72.8586V72.7086H50.465L50.5173 72.8985L50.662 72.8586ZM61.473 72.8586L61.6183 72.8958L61.6662 72.7086H61.473V72.8586ZM61.8761 71.2876V71.4376H61.9924L62.0214 71.3249L61.8761 71.2876ZM50.227 71.2876L50.0824 71.3276L50.1129 71.4376H50.227V71.2876ZM64.2745 61.961L64.4198 61.9983L64.4342 61.9421L64.407 61.8908L64.2745 61.961ZM56.7418 47.7382L56.8743 47.668L56.5918 47.7382H56.7418ZM56.7418 56.8677H56.5918V56.9819L56.7019 57.0123L56.7418 56.8677ZM58.8874 60.1157L58.7387 60.0955L58.7387 60.0956L58.8874 60.1157ZM53.0251 60.1157L53.1737 60.0956L53.0251 60.1157ZM55.1707 56.8677L55.2105 57.0123L55.3207 56.9819V56.8677H55.1707ZM55.1707 47.7382H55.3207L55.0381 47.668L55.1707 47.7382ZM47.6418 61.9537L47.5093 61.8835L47.4813 61.9362L47.4973 61.9937L47.6418 61.9537ZM56.7831 44.1375C56.6214 43.8309 56.3029 43.6391 55.9562 43.6391V43.9391C56.1918 43.9391 56.408 44.0694 56.5178 44.2775L56.7831 44.1375ZM65.9378 61.4286L56.783 44.1373L56.5179 44.2777L65.6727 61.569L65.9378 61.4286ZM66.0172 62.0952C66.0754 61.8708 66.047 61.6327 65.9375 61.428L65.673 61.5695C65.7469 61.7078 65.7661 61.8685 65.7268 62.02L66.0172 62.0952ZM63.6434 71.325L66.0173 62.095L65.7267 62.0203L63.3529 71.2502L63.6434 71.325ZM64.1905 71.1376H63.4982V71.4376H64.1905V71.1376ZM65.126 72.0731C65.126 71.5561 64.7075 71.1376 64.1905 71.1376V71.4376C64.5418 71.4376 64.826 71.7218 64.826 72.0731H65.126ZM64.1905 73.0086C64.7076 73.0086 65.126 72.5897 65.126 72.0731H64.826C64.826 72.4241 64.5418 72.7086 64.1905 72.7086V73.0086ZM63.0947 73.0086H64.1905V72.7086H63.0947V73.0086ZM61.983 77.7955L63.2399 72.8959L62.9494 72.8214L61.6924 77.721L61.983 77.7955ZM61.0783 78.5073C61.5066 78.5028 61.8783 78.21 61.9832 77.795L61.6923 77.7215C61.6208 78.0045 61.3672 78.2043 61.0751 78.2074L61.0783 78.5073ZM51.146 78.5074H61.0767V78.2074H51.146V78.5074ZM50.2441 77.8119C50.355 78.2187 50.7225 78.5028 51.1444 78.5073L51.1476 78.2074C50.8599 78.2043 50.6092 78.0104 50.5336 77.733L50.2441 77.8119ZM48.8872 72.8986L50.2443 77.8124L50.5334 77.7325L49.1764 72.8187L48.8872 72.8986ZM47.722 73.0086H49.0318V72.7086H47.722V73.0086ZM46.7864 72.0731C46.7864 72.5898 47.2053 73.0086 47.722 73.0086V72.7086C47.371 72.7086 47.0864 72.4241 47.0864 72.0731H46.7864ZM47.722 71.1376C47.2054 71.1376 46.7864 71.556 46.7864 72.0731H47.0864C47.0864 71.7218 47.371 71.4376 47.722 71.4376V71.1376ZM48.598 71.1376H47.722V71.4376H48.598V71.1376ZM45.9005 62.1115L48.4535 71.3276L48.7426 71.2475L46.1896 62.0314L45.9005 62.1115ZM45.9754 61.4324C45.8635 61.6406 45.8364 61.8843 45.9007 62.1122L46.1894 62.0307C46.1463 61.878 46.1644 61.7144 46.2397 61.5744L45.9754 61.4324ZM55.1294 44.1374L45.975 61.4332L46.2401 61.5735L55.3946 44.2777L55.1294 44.1374ZM55.9562 43.6391C55.6098 43.6391 55.2915 43.831 55.1294 44.1374L55.3946 44.2777C55.5048 44.0694 55.7211 43.9391 55.9562 43.9391V43.6391ZM55.9562 58.4821C56.6394 58.4821 57.1932 59.0359 57.1932 59.7191H57.4932C57.4932 58.8702 56.805 58.1821 55.9562 58.1821V58.4821ZM54.7197 59.7192C54.7203 59.0363 55.2736 58.4828 55.9564 58.4821L55.9561 58.1821C55.1077 58.183 54.4205 58.8706 54.4197 59.7189L54.7197 59.7192ZM55.9562 60.9556C55.2731 60.9556 54.7197 60.4018 54.7197 59.7191H54.4197C54.4197 60.5675 55.1074 61.2556 55.9562 61.2556V60.9556ZM57.1932 59.719C57.1928 60.4022 56.6393 60.9556 55.9562 60.9556V61.2556C56.8051 61.2556 57.4928 60.5679 57.4932 59.7191L57.1932 59.719ZM51.744 76.9363H60.4677V76.6363H51.744V76.9363ZM50.5173 72.8985L51.5994 76.8261L51.8886 76.7465L50.8066 72.8188L50.5173 72.8985ZM61.473 72.7086H50.662V73.0086H61.473V72.7086ZM60.613 76.8235L61.6183 72.8958L61.3276 72.8215L60.3223 76.7491L60.613 76.8235ZM61.8761 71.1376H50.227V71.4376H61.8761V71.1376ZM64.1292 61.9236L61.7308 71.2502L62.0214 71.3249L64.4198 61.9983L64.1292 61.9236ZM56.6092 47.8084L64.1419 62.0312L64.407 61.8908L56.8743 47.668L56.6092 47.8084ZM56.8918 56.8677V47.7382H56.5918V56.8677H56.8918ZM59.036 60.1358C59.2448 58.5942 58.2812 57.1361 56.7816 56.7231L56.7019 57.0123C58.0568 57.3855 58.9273 58.7029 58.7387 60.0955L59.036 60.1358ZM55.9562 62.8274C57.5119 62.8274 58.8277 61.6772 59.036 60.1357L58.7387 60.0956C58.5505 61.4883 57.3617 62.5274 55.9562 62.5274V62.8274ZM52.8764 60.1357C53.0848 61.6773 54.401 62.8274 55.9562 62.8274V62.5274C54.5512 62.5274 53.362 61.4883 53.1737 60.0956L52.8764 60.1357ZM55.1309 56.7231C53.6313 57.1361 52.6681 58.5942 52.8764 60.1357L53.1737 60.0956C52.9855 58.7028 53.8557 57.3855 55.2105 57.0123L55.1309 56.7231ZM55.0207 47.7382V56.8677H55.3207V47.7382H55.0207ZM47.7744 62.0239L55.3033 47.8084L55.0381 47.668L47.5093 61.8835L47.7744 62.0239ZM50.3716 71.2476L47.7864 61.9136L47.4973 61.9937L50.0824 71.3276L50.3716 71.2476Z" fill="#FDCC66"/>
<path fill-rule="evenodd" clip-rule="evenodd" d="M71.4854 47.5253H74.0994C74.5447 47.5407 74.8999 47.902 74.9072 48.3477V54.2315C74.901 54.4394 74.8121 54.6358 74.6606 54.7777C74.509 54.9196 74.3069 54.9952 74.0994 54.9879H68.2152C68.0115 54.994 67.8144 54.9165 67.6686 54.7738C67.5233 54.6312 67.4423 54.4355 67.4446 54.2315V48.3477C67.4446 47.9139 67.7814 47.5253 68.2152 47.5253H69.8668C68.5508 42.6024 64.7241 38.746 59.8118 37.3917C59.2522 39.0441 57.7026 40.156 55.9582 40.1572C54.2138 40.1583 52.6627 39.0479 52.1011 37.3963C47.1904 38.7506 43.3644 42.6047 42.0457 47.5253H43.6973C44.1315 47.5253 44.4679 47.9139 44.4679 48.3477V54.2315C44.4702 54.4355 44.3893 54.6312 44.2439 54.7738C44.0985 54.9165 43.901 54.994 43.6973 54.9879H37.8131C37.6056 54.9952 37.4039 54.9196 37.2524 54.7777C37.1005 54.6358 37.0119 54.4394 37.0054 54.2315V48.3477C37.013 47.902 37.3682 47.5407 37.8131 47.5253H40.4267C41.801 41.8122 46.2035 37.3161 51.8863 35.8226C52.0213 33.6727 53.8049 31.9989 55.9586 32C58.1126 32.0012 59.8943 33.6773 60.0266 35.8272C65.7102 37.3165 70.1138 41.8118 71.4854 47.5253ZM38.5764 53.4168H42.8968V49.0964H38.5764V53.4168ZM55.9563 38.5953C54.572 38.5953 53.4497 37.473 53.4497 36.0887C53.4497 34.7045 54.572 33.5822 55.9563 33.5822C57.3409 33.5822 58.4632 34.7045 58.4632 36.0887C58.4617 37.4726 57.3402 38.5938 55.9563 38.5953ZM69.0157 53.4168H73.3361V49.0964H69.0157V53.4168Z" fill="#FDCC66"/>
<path d="M74.0994 47.5253L74.1046 47.3753H74.0994V47.5253ZM71.4854 47.5253L71.3396 47.5604L71.3672 47.6753H71.4854V47.5253ZM74.9072 48.3477H75.0572L75.0572 48.3452L74.9072 48.3477ZM74.9072 54.2315L75.0572 54.2359V54.2315H74.9072ZM74.6606 54.7777L74.558 54.6682V54.6682L74.6606 54.7777ZM74.0994 54.9879L74.1047 54.8379H74.0994V54.9879ZM68.2152 54.9879V54.8378L68.2107 54.8379L68.2152 54.9879ZM67.6686 54.7738L67.5636 54.8809L67.5637 54.881L67.6686 54.7738ZM67.4446 54.2315L67.5946 54.2332V54.2315H67.4446ZM69.8668 47.5253V47.6753H70.0622L70.0117 47.4866L69.8668 47.5253ZM59.8118 37.3917L59.8517 37.2471L59.7152 37.2095L59.6697 37.3436L59.8118 37.3917ZM55.9582 40.1572L55.9583 40.3072L55.9582 40.1572ZM52.1011 37.3963L52.2431 37.348L52.1976 37.2141L52.0612 37.2517L52.1011 37.3963ZM42.0457 47.5253L41.9008 47.4865L41.8502 47.6753H42.0457V47.5253ZM44.4679 54.2315H44.3179L44.3179 54.2332L44.4679 54.2315ZM44.2439 54.7738L44.1388 54.6668H44.1388L44.2439 54.7738ZM43.6973 54.9879L43.7019 54.8379H43.6973V54.9879ZM37.8131 54.9879V54.8378L37.8079 54.838L37.8131 54.9879ZM37.2524 54.7777L37.3549 54.6682L37.3548 54.6681L37.2524 54.7777ZM37.0054 54.2315H36.8553L36.8554 54.2362L37.0054 54.2315ZM37.0054 48.3477L36.8554 48.3451V48.3477H37.0054ZM37.8131 47.5253V47.3752L37.808 47.3754L37.8131 47.5253ZM40.4267 47.5253V47.6753H40.5449L40.5726 47.5604L40.4267 47.5253ZM51.8863 35.8226L51.9245 35.9676L52.0292 35.9401L52.036 35.832L51.8863 35.8226ZM55.9586 32L55.9587 31.85L55.9586 32ZM60.0266 35.8272L59.8769 35.8364L59.8836 35.9447L59.9886 35.9723L60.0266 35.8272ZM42.8968 53.4168V53.5668H43.0468V53.4168H42.8968ZM38.5764 53.4168H38.4264V53.5668H38.5764V53.4168ZM42.8968 49.0964H43.0468V48.9464H42.8968V49.0964ZM38.5764 49.0964V48.9464H38.4264V49.0964H38.5764ZM55.9563 38.5953V38.7453H55.9564L55.9563 38.5953ZM58.4632 36.0887L58.6132 36.0889V36.0887H58.4632ZM73.3361 53.4168V53.5668H73.4861V53.4168H73.3361ZM69.0157 53.4168H68.8657V53.5668H69.0157V53.4168ZM73.3361 49.0964H73.4861V48.9464H73.3361V49.0964ZM69.0157 49.0964V48.9464H68.8657V49.0964H69.0157ZM74.0994 47.3753H71.4854V47.6753H74.0994V47.3753ZM75.0572 48.3452C75.0486 47.8196 74.6297 47.3935 74.1046 47.3754L74.0942 47.6752C74.4598 47.6878 74.7512 47.9844 74.7572 48.3501L75.0572 48.3452ZM75.0572 54.2315V48.3477H74.7572V54.2315H75.0572ZM74.7631 54.8872C74.9436 54.718 75.0498 54.4839 75.0571 54.2359L74.7572 54.2271C74.7523 54.3949 74.6805 54.5535 74.558 54.6682L74.7631 54.8872ZM74.0941 55.1378C74.3414 55.1465 74.5824 55.0564 74.7631 54.8871L74.558 54.6682C74.4357 54.7827 74.2724 54.8439 74.1047 54.838L74.0941 55.1378ZM68.2152 55.1379H74.0994V54.8379H68.2152V55.1379ZM67.5637 54.881C67.7384 55.0521 67.975 55.1452 68.2197 55.1378L68.2107 54.8379C68.0481 54.8428 67.8904 54.781 67.7736 54.6667L67.5637 54.881ZM67.2947 54.2298C67.2919 54.4747 67.3891 54.7096 67.5636 54.8809L67.7737 54.6668C67.6575 54.5527 67.5928 54.3964 67.5946 54.2332L67.2947 54.2298ZM67.2946 48.3477V54.2315H67.5946V48.3477H67.2946ZM68.2152 47.3753C67.6862 47.3753 67.2946 47.8439 67.2946 48.3477H67.5946C67.5946 47.9838 67.8766 47.6753 68.2152 47.6753V47.3753ZM69.8668 47.3753H68.2152V47.6753H69.8668V47.3753ZM59.7719 37.5363C64.6329 38.8765 68.4197 42.6925 69.7219 47.5641L70.0117 47.4866C68.682 42.5122 64.8152 38.6156 59.8517 37.2471L59.7719 37.5363ZM55.9583 40.3072C57.767 40.306 59.3737 39.1531 59.9539 37.4398L59.6697 37.3436C59.1307 38.9351 57.6383 40.0061 55.9581 40.0072L55.9583 40.3072ZM51.9591 37.4446C52.5413 39.157 54.1496 40.3084 55.9583 40.3072L55.9581 40.0072C54.278 40.0083 52.784 38.9388 52.2431 37.348L51.9591 37.4446ZM42.1906 47.5642C43.4955 42.6949 47.2816 38.8811 52.141 37.5409L52.0612 37.2517C47.0992 38.6202 43.2333 42.5144 41.9008 47.4865L42.1906 47.5642ZM43.6973 47.3753H42.0457V47.6753H43.6973V47.3753ZM44.6179 48.3477C44.6179 47.844 44.2268 47.3753 43.6973 47.3753V47.6753C44.0363 47.6753 44.3179 47.9838 44.3179 48.3477H44.6179ZM44.6179 54.2315V48.3477H44.3179V54.2315H44.6179ZM44.349 54.8809C44.5235 54.7096 44.6207 54.4747 44.6179 54.2298L44.3179 54.2332C44.3198 54.3964 44.2551 54.5527 44.1388 54.6668L44.349 54.8809ZM43.6928 55.1378C43.9374 55.1452 44.1745 55.0521 44.349 54.8809L44.1388 54.6668C44.0226 54.7809 43.8646 54.8428 43.7019 54.8379L43.6928 55.1378ZM37.8131 55.1379H43.6973V54.8379H37.8131V55.1379ZM37.1498 54.8872C37.3305 55.0564 37.5711 55.1465 37.8184 55.1378L37.8079 54.838C37.6402 54.8438 37.4773 54.7828 37.3549 54.6682L37.1498 54.8872ZM36.8554 54.2362C36.8632 54.4838 36.9688 54.718 37.15 54.8873L37.3548 54.6681C37.2322 54.5535 37.1606 54.395 37.1553 54.2268L36.8554 54.2362ZM36.8554 48.3477V54.2315H37.1554V48.3477H36.8554ZM37.808 47.3754C37.2832 47.3935 36.8644 47.8196 36.8554 48.3451L37.1553 48.3503C37.1616 47.9843 37.4532 47.6878 37.8183 47.6752L37.808 47.3754ZM40.4267 47.3753H37.8131V47.6753H40.4267V47.3753ZM51.8482 35.6775C46.112 37.1851 41.6681 41.7234 40.2809 47.4903L40.5726 47.5604C41.9339 41.901 46.2951 37.4472 51.9245 35.9676L51.8482 35.6775ZM55.9587 31.85C53.7258 31.8488 51.8766 33.5842 51.7366 35.8132L52.036 35.832C52.1661 33.7612 53.884 32.1489 55.9585 32.15L55.9587 31.85ZM60.1763 35.8179C60.0391 33.589 58.192 31.8512 55.9587 31.85L55.9585 32.15C58.0333 32.1511 59.7494 33.7656 59.8769 35.8364L60.1763 35.8179ZM71.6313 47.4903C70.2468 41.7231 65.8017 37.1854 60.0646 35.6821L59.9886 35.9723C65.6187 37.4476 69.9809 41.9006 71.3396 47.5604L71.6313 47.4903ZM42.8968 53.2668H38.5764V53.5668H42.8968V53.2668ZM42.7468 49.0964V53.4168H43.0468V49.0964H42.7468ZM38.5764 49.2464H42.8968V48.9464H38.5764V49.2464ZM38.7264 53.4168V49.0964H38.4264V53.4168H38.7264ZM53.2997 36.0887C53.2997 37.5559 54.4892 38.7453 55.9563 38.7453V38.4453C54.6549 38.4453 53.5997 37.3902 53.5997 36.0887H53.2997ZM55.9563 33.4322C54.4892 33.4322 53.2997 34.6216 53.2997 36.0887H53.5997C53.5997 34.7873 54.6549 33.7322 55.9563 33.7322V33.4322ZM58.6132 36.0887C58.6132 34.6216 57.4238 33.4322 55.9563 33.4322V33.7322C57.2581 33.7322 58.3132 34.7873 58.3132 36.0887H58.6132ZM55.9564 38.7453C57.423 38.7437 58.6116 37.5555 58.6132 36.0889L58.3132 36.0886C58.3118 37.3897 57.2573 38.4439 55.9561 38.4453L55.9564 38.7453ZM73.3361 53.2668H69.0157V53.5668H73.3361V53.2668ZM73.1861 49.0964V53.4168H73.4861V49.0964H73.1861ZM69.0157 49.2464H73.3361V48.9464H69.0157V49.2464ZM69.1657 53.4168V49.0964H68.8657V53.4168H69.1657Z" fill="#FDCC66"/>
</svg>
