<svg width="112" height="112" viewBox="0 0 112 112" fill="none" xmlns="http://www.w3.org/2000/svg">
<circle cx="56" cy="56" r="56" fill="#FEF1F2"/>
<path fill-rule="evenodd" clip-rule="evenodd" d="M74.2977 65.0164L57.3895 35.7206L56.8055 34.7106L55.2235 35.6233L56.1058 37.1443L31.2272 64.8278L30.6431 63.8178L29.0612 64.7304L29.9373 66.2515L34.1294 73.5101L35.0116 75.0372L36.5935 74.1246L36.0094 73.1146L42.1058 71.8308C42.6169 75.098 45.4461 77.5987 48.8533 77.5987H49.4313C53.1914 77.5987 56.2579 74.5383 56.2579 70.7721V68.8373L72.4177 65.418L73.2999 66.9451L74.8818 66.0325L74.2977 65.0164ZM54.4326 70.7721C54.4326 73.5283 52.1875 75.7734 49.4313 75.7734H48.8533C46.3222 75.7734 44.2232 73.8873 43.8946 71.4536L54.4326 69.2267V70.7721ZM55.1505 67.2007L71.4564 63.7509L57.0671 38.8175V38.8236L32.1885 66.4949L35.0542 71.4596L42.0267 69.9812L42.7508 69.8291L45.0141 69.3484L45.6347 69.2146L55.1505 67.2007Z" fill="#FF858F"/>
<path d="M57.3895 35.7206L57.8226 35.4707L57.8224 35.4703L57.3895 35.7206ZM74.2977 65.0164L74.7312 64.7672L74.7308 64.7665L74.2977 65.0164ZM56.8055 34.7106L57.2383 34.4603L56.9882 34.0279L56.5556 34.2775L56.8055 34.7106ZM55.2235 35.6233L54.9737 35.1902L54.5396 35.4406L54.791 35.8741L55.2235 35.6233ZM56.1058 37.1443L56.4776 37.4786L56.7207 37.2081L56.5383 36.8935L56.1058 37.1443ZM31.2272 64.8278L30.7943 65.0781L31.1389 65.674L31.599 65.162L31.2272 64.8278ZM30.6431 63.8178L31.0759 63.5675L30.8258 63.1351L30.3932 63.3847L30.6431 63.8178ZM29.0612 64.7304L28.8113 64.2974L28.3785 64.547L28.6279 64.98L29.0612 64.7304ZM29.9373 66.2515L29.504 66.5011L29.5043 66.5016L29.9373 66.2515ZM34.1294 73.5101L33.6964 73.7601L33.6964 73.7602L34.1294 73.5101ZM35.0116 75.0372L34.5786 75.2873L34.8286 75.72L35.2614 75.4703L35.0116 75.0372ZM36.5935 74.1246L36.8433 74.5577L37.2769 74.3075L37.0263 73.8743L36.5935 74.1246ZM36.0094 73.1146L35.9064 72.6253L35.2311 72.7675L35.5766 73.3649L36.0094 73.1146ZM42.1058 71.8308L42.5998 71.7535L42.5184 71.2329L42.0028 71.3415L42.1058 71.8308ZM56.2579 68.8373L56.1544 68.3482L55.7579 68.4321V68.8373H56.2579ZM72.4177 65.418L72.8506 65.1679L72.6692 64.8537L72.3142 64.9288L72.4177 65.418ZM73.2999 66.9451L72.867 67.1952L73.1169 67.6279L73.5498 67.3782L73.2999 66.9451ZM74.8818 66.0325L75.1317 66.4656L75.5641 66.2161L75.3153 65.7833L74.8818 66.0325ZM43.8946 71.4536L43.7912 70.9644L43.337 71.0604L43.3991 71.5205L43.8946 71.4536ZM54.4326 69.2267H54.9326V68.61L54.3292 68.7375L54.4326 69.2267ZM71.4564 63.7509L71.5599 64.24L72.2337 64.0975L71.8894 63.501L71.4564 63.7509ZM55.1505 67.2007L55.047 66.7115L55.047 66.7115L55.1505 67.2007ZM57.0671 38.8175L57.5001 38.5676L56.5671 36.9508V38.8175H57.0671ZM57.0671 38.8236L57.4389 39.1579L57.5671 39.0153V38.8236H57.0671ZM32.1885 66.4949L31.8167 66.1606L31.574 66.4305L31.7554 66.7448L32.1885 66.4949ZM35.0542 71.4596L34.6211 71.7096L34.8027 72.0241L35.1579 71.9488L35.0542 71.4596ZM42.0267 69.9812L41.9239 69.4919L41.923 69.492L42.0267 69.9812ZM42.7508 69.8291L42.8536 70.3184L42.8546 70.3182L42.7508 69.8291ZM45.0141 69.3484L45.118 69.8375L45.1195 69.8372L45.0141 69.3484ZM45.6347 69.2146L45.5312 68.7254L45.5293 68.7258L45.6347 69.2146ZM56.9565 35.9706L73.8647 65.2663L74.7308 64.7665L57.8226 35.4707L56.9565 35.9706ZM56.3726 34.9609L56.9567 35.9709L57.8224 35.4703L57.2383 34.4603L56.3726 34.9609ZM55.4734 36.0564L57.0553 35.1437L56.5556 34.2775L54.9737 35.1902L55.4734 36.0564ZM56.5383 36.8935L55.6561 35.3724L54.791 35.8741L55.6732 37.3952L56.5383 36.8935ZM31.599 65.162L56.4776 37.4786L55.7339 36.8101L30.8553 64.4936L31.599 65.162ZM30.2102 64.0681L30.7943 65.0781L31.66 64.5775L31.0759 63.5675L30.2102 64.0681ZM29.311 65.1635L30.8929 64.2509L30.3932 63.3847L28.8113 64.2974L29.311 65.1635ZM30.3706 66.002L29.4944 64.4809L28.6279 64.98L29.504 66.5011L30.3706 66.002ZM34.5623 73.26L30.3703 66.0015L29.5043 66.5016L33.6964 73.7601L34.5623 73.26ZM35.4445 74.7871L34.5623 73.2599L33.6964 73.7602L34.5786 75.2873L35.4445 74.7871ZM36.3436 73.6915L34.7617 74.6041L35.2614 75.4703L36.8433 74.5577L36.3436 73.6915ZM35.5766 73.3649L36.1607 74.3749L37.0263 73.8743L36.4422 72.8643L35.5766 73.3649ZM42.0028 71.3415L35.9064 72.6253L36.1124 73.6038L42.2089 72.3201L42.0028 71.3415ZM48.8533 77.0987C45.6963 77.0987 43.0734 74.7813 42.5998 71.7535L41.6118 71.9081C42.1604 75.4148 45.1959 78.0987 48.8533 78.0987V77.0987ZM49.4313 77.0987H48.8533V78.0987H49.4313V77.0987ZM55.7579 70.7721C55.7579 74.2619 52.9155 77.0987 49.4313 77.0987V78.0987C53.4672 78.0987 56.7579 74.8147 56.7579 70.7721H55.7579ZM55.7579 68.8373V70.7721H56.7579V68.8373H55.7579ZM72.3142 64.9288L56.1544 68.3482L56.3614 69.3265L72.5212 65.9071L72.3142 64.9288ZM73.7329 66.695L72.8506 65.1679L71.9847 65.6681L72.867 67.1952L73.7329 66.695ZM74.632 65.5994L73.0501 66.512L73.5498 67.3782L75.1317 66.4656L74.632 65.5994ZM73.8643 65.2656L74.4483 66.2817L75.3153 65.7833L74.7312 64.7672L73.8643 65.2656ZM49.4313 76.2734C52.4636 76.2734 54.9326 73.8044 54.9326 70.7721H53.9326C53.9326 73.2522 51.9113 75.2734 49.4313 75.2734V76.2734ZM48.8533 76.2734H49.4313V75.2734H48.8533V76.2734ZM43.3991 71.5205C43.7608 74.1996 46.0693 76.2734 48.8533 76.2734V75.2734C46.5752 75.2734 44.6855 73.5749 44.3901 71.3867L43.3991 71.5205ZM54.3292 68.7375L43.7912 70.9644L43.998 71.9428L54.536 69.7159L54.3292 68.7375ZM54.9326 70.7721V69.2267H53.9326V70.7721H54.9326ZM71.3529 63.2617L55.047 66.7115L55.254 67.6898L71.5599 64.24L71.3529 63.2617ZM56.634 39.0674L71.0233 64.0008L71.8894 63.501L57.5001 38.5676L56.634 39.0674ZM57.5671 38.8236V38.8175H56.5671V38.8236H57.5671ZM32.5603 66.8292L57.4389 39.1579L56.6953 38.4893L31.8167 66.1606L32.5603 66.8292ZM35.4872 71.2097L32.6215 66.2449L31.7554 66.7448L34.6211 71.7096L35.4872 71.2097ZM41.923 69.492L34.9505 70.9705L35.1579 71.9488L42.1305 70.4703L41.923 69.492ZM42.648 69.3397L41.9239 69.4919L42.1295 70.4705L42.8536 70.3184L42.648 69.3397ZM44.9103 68.8593L42.6469 69.34L42.8546 70.3182L45.118 69.8375L44.9103 68.8593ZM45.5293 68.7258L44.9087 68.8596L45.1195 69.8372L45.7401 69.7033L45.5293 68.7258ZM55.047 66.7115L45.5312 68.7254L45.7382 69.7037L55.2541 67.6898L55.047 66.7115Z" fill="#FF858F"/>
<path d="M77.262 42.7347L78.1755 44.315L72.0175 47.8748L71.1039 46.2945L77.262 42.7347Z" fill="#FF858F" stroke="#FF858F"/>
<path d="M70.0414 34.1761L71.5531 35.199L67.5672 41.0896L66.0555 40.0667L70.0414 34.1761Z" fill="#FF858F" stroke="#FF858F"/>
<path d="M81.8381 53.0212L81.9693 54.8417L74.8753 55.3529L74.7441 53.5324L81.8381 53.0212Z" fill="#FF858F" stroke="#FF858F"/>
</svg>
