<svg width="112" height="112" viewBox="0 0 112 112" fill="none" xmlns="http://www.w3.org/2000/svg">
<circle cx="56" cy="56" r="56" fill="#F8FAFB"/>
<path d="M42.2281 48.2753C42.2281 51.1674 43.1627 53.902 44.9315 56.1833C44.9399 56.1943 44.9492 56.2052 44.9584 56.2161C48.647 61.3364 47.7301 63.7718 47.7301 63.776C47.5329 64.1973 47.715 64.6988 48.1363 64.8968C48.2518 64.9507 48.3731 64.9768 48.4927 64.976C48.8095 64.976 49.113 64.7965 49.2562 64.4906C49.4087 64.167 50.6137 61.1509 46.2814 55.1695C46.262 55.1433 46.2426 55.118 46.2208 55.0945C44.7115 53.1226 43.9143 50.7664 43.9143 48.2745C43.9143 42.0823 48.9528 37.0447 55.1441 37.0447C61.3354 37.0447 66.3741 42.0823 66.3741 48.2745C66.3741 50.7731 65.5719 53.1385 64.039 55.1324C59.7042 61.118 60.9581 64.1687 61.1149 64.4973C61.3129 64.9094 61.7991 65.078 62.2154 64.8917C62.6318 64.7054 62.8205 64.21 62.6443 63.7886C62.6342 63.7642 61.6685 61.2799 65.3899 56.1403C67.1359 53.8683 68.0595 51.1489 68.0595 48.2753C68.0595 41.1536 62.2659 35.36 55.1442 35.36C48.0225 35.36 42.2281 41.1545 42.2281 48.2753Z" fill="#5AC8FE" stroke="#5AC8FE" stroke-width="0.6"/>
<path fill-rule="evenodd" clip-rule="evenodd" d="M62.6654 67.5041V68.2204C62.6654 69.3622 61.7368 70.2909 60.5958 70.2909H49.2386C48.0968 70.2909 47.1681 69.3614 47.1681 68.2204V67.5041C47.1681 66.3623 48.0968 65.4336 49.2386 65.4336H60.5948C61.7358 65.4336 62.6654 66.3623 62.6654 67.5041ZM48.8535 67.5041V68.2204C48.8535 68.4328 49.0262 68.6055 49.2386 68.6055H60.5958C60.8082 68.6055 60.9809 68.4327 60.9809 68.2204V67.5041C60.9809 67.2917 60.8081 67.119 60.5958 67.119H49.2386C49.0262 67.119 48.8535 67.2918 48.8535 67.5041Z" fill="#5AC8FE"/>
<path d="M62.9654 68.2204V67.5041H62.3654V68.2204H62.9654ZM60.5958 70.5909C61.9025 70.5909 62.9654 69.5278 62.9654 68.2204H62.3654C62.3654 69.1966 61.571 69.9909 60.5958 69.9909V70.5909ZM49.2386 70.5909H60.5958V69.9909H49.2386V70.5909ZM46.8681 68.2204C46.8681 69.527 47.931 70.5909 49.2386 70.5909V69.9909C48.2625 69.9909 47.4681 69.1958 47.4681 68.2204H46.8681ZM46.8681 67.5041V68.2204H47.4681V67.5041H46.8681ZM49.2386 65.1336C47.9311 65.1336 46.8681 66.1966 46.8681 67.5041H47.4681C47.4681 66.528 48.2625 65.7336 49.2386 65.7336V65.1336ZM60.5948 65.1336H49.2386V65.7336H60.5948V65.1336ZM62.9654 67.5041C62.9654 66.1965 61.9014 65.1336 60.5948 65.1336V65.7336C61.5702 65.7336 62.3654 66.528 62.3654 67.5041H62.9654ZM49.1535 68.2204V67.5041H48.5535V68.2204H49.1535ZM49.2386 68.3055C49.1919 68.3055 49.1535 68.2671 49.1535 68.2204H48.5535C48.5535 68.5985 48.8605 68.9055 49.2386 68.9055V68.3055ZM60.5958 68.3055H49.2386V68.9055H60.5958V68.3055ZM60.6809 68.2204C60.6809 68.2671 60.6424 68.3055 60.5958 68.3055V68.9055C60.9739 68.9055 61.2809 68.5983 61.2809 68.2204H60.6809ZM60.6809 67.5041V68.2204H61.2809V67.5041H60.6809ZM60.5958 67.419C60.6424 67.419 60.6809 67.4574 60.6809 67.5041H61.2809C61.2809 67.126 60.9737 66.819 60.5958 66.819V67.419ZM49.2386 67.419H60.5958V66.819H49.2386V67.419ZM49.1535 67.5041C49.1535 67.4574 49.1919 67.419 49.2386 67.419V66.819C48.8605 66.819 48.5535 67.1262 48.5535 67.5041H49.1535Z" fill="#5AC8FE"/>
<path d="M50.603 71.5719C50.137 71.5719 49.7603 71.9495 49.7603 72.4146V74.6403C49.7603 74.9706 49.9532 75.2698 50.2532 75.4071L54.7946 77.4793C54.9058 77.5299 55.0246 77.5552 55.1442 77.5552C55.2673 77.5552 55.3904 77.5283 55.5041 77.4743L60.0581 75.3254C60.353 75.1864 60.541 74.8898 60.541 74.5637V72.4156C60.541 71.9504 60.1643 71.5728 59.6982 71.5728C59.2321 71.5728 58.8555 71.9504 58.8555 72.4156V74.0302L55.1383 75.7847L51.4456 74.0993V72.4156C51.4456 71.9485 51.069 71.5719 50.603 71.5719Z" fill="#5AC8FE" stroke="#5AC8FE" stroke-width="0.6"/>
<path d="M74.7767 63.503C75.0531 63.1289 74.9731 62.6013 74.5989 62.3249L68.8821 58.1097C68.5071 57.8333 67.9803 57.9125 67.7039 58.2875C67.4276 58.6616 67.5076 59.1892 67.8817 59.4656L73.5986 63.6808C73.7495 63.792 73.9248 63.8451 74.0983 63.8451C74.3562 63.846 74.6116 63.7272 74.7767 63.503Z" fill="#5AC8FE" stroke="#5AC8FE" stroke-width="0.6"/>
<path d="M41.2801 39.8541C41.4309 39.9654 41.6062 40.0185 41.7798 40.0185C42.0384 40.0185 42.293 39.8997 42.459 39.6755C42.7354 39.3014 42.6554 38.7738 42.2812 38.4974L36.4354 34.1878C36.0613 33.9105 35.5337 33.9914 35.2573 34.3656C34.9809 34.7405 35.0601 35.2681 35.4351 35.5445L41.2801 39.8541Z" fill="#5AC8FE" stroke="#5AC8FE" stroke-width="0.6"/>
<path d="M41.5456 57.8197L35.436 62.3248C35.0618 62.6012 34.9818 63.1288 35.2582 63.5029C35.4234 63.7271 35.6787 63.8459 35.9375 63.8459C36.111 63.8459 36.2863 63.7928 36.4372 63.6815L42.5467 59.1765C42.9209 58.9001 43.0009 58.3725 42.7245 57.9984C42.4464 57.6234 41.9197 57.5442 41.5456 57.8197Z" fill="#5AC8FE" stroke="#5AC8FE" stroke-width="0.6"/>
<path d="M68.1312 38.2193C67.757 38.4957 67.677 39.0233 67.9534 39.3975C68.1185 39.6216 68.3739 39.7404 68.6326 39.7404C68.8062 39.7404 68.9815 39.6865 69.1323 39.5761L74.6006 35.5446C74.9748 35.2682 75.0548 34.7406 74.7784 34.3665C74.502 33.9923 73.9753 33.9115 73.6003 34.1887L68.1312 38.2193Z" fill="#5AC8FE" stroke="#5AC8FE" stroke-width="0.6"/>
<path d="M78.0894 48.0924H71.6437C71.1776 48.0924 70.8009 48.47 70.8009 48.9352C70.8009 49.4003 71.1775 49.7779 71.6437 49.7779H78.0894C78.5554 49.7779 78.9322 49.4003 78.9322 48.9352C78.9322 48.47 78.5554 48.0924 78.0894 48.0924Z" fill="#5AC8FE" stroke="#5AC8FE" stroke-width="0.6"/>
<path d="M39.3369 48.9352C39.3369 48.47 38.9602 48.0924 38.4941 48.0924H31.8427C31.3767 48.0924 31 48.47 31 48.9352C31 49.4003 31.3766 49.7779 31.8427 49.7779H38.4942C38.9593 49.7778 39.3369 49.4003 39.3369 48.9352Z" fill="#5AC8FE" stroke="#5AC8FE" stroke-width="0.6"/>
</svg>
