<svg width="174" height="174" viewBox="0 0 174 174" fill="none" xmlns="http://www.w3.org/2000/svg">
<circle opacity="0.2" cx="87" cy="87" r="87" fill="white"/>
<circle opacity="0.6" cx="87" cy="87" r="59" fill="white"/>
<circle cx="87" cy="87" r="32" fill="white"/>
<path d="M83.0476 103.024C83.0476 105.772 85.2862 108 88.0476 108C90.809 108 93.0476 105.772 93.0476 103.024V102.762H83.0476V103.024Z" fill="#ACABB1"/>
<path d="M88.0476 99.9048H86.4687H83.0476V102.762H93.0476V99.9048H89.6266H88.0476Z" fill="#565659"/>
<path d="M86.2237 89.5787C83.7862 88.8823 81.995 86.6246 81.995 83.9524H85.1666C85.1666 85.4184 86.3522 86.6111 87.8095 86.6111C87.8095 79.8944 87.8095 72.2801 87.8095 68C80.1828 68 74 74.2195 74 81.8919C74 87.0399 76.7837 91.5337 80.9194 93.9337L82.7879 99.9048H86.2237V89.5787Z" fill="#FFE98F"/>
<path d="M87.8095 68C87.8095 72.2801 87.8095 79.8944 87.8095 86.6111C89.2668 86.6111 90.4525 85.4184 90.4525 83.9524H93.624C93.624 86.6246 91.8329 88.8823 89.3953 89.5787V99.9048H92.8312L94.6996 93.9337C98.8354 91.5338 101.619 87.04 101.619 81.8919C101.619 74.2195 95.4363 68 87.8095 68Z" fill="#FFE98F"/>
<path d="M85.342 83.7142H82.0952C82.0952 86.4264 83.9289 88.7177 86.4242 89.4245V99.9047H89.671V89.4245C92.1663 88.7177 94 86.4264 94 83.7142H90.7532C90.7532 85.2021 89.5395 86.4126 88.0476 86.4126C86.5557 86.4126 85.342 85.2021 85.342 83.7142Z" fill="#FF9811"/>
</svg>
