<svg width="40" height="25" viewBox="0 0 40 25" fill="none" xmlns="http://www.w3.org/2000/svg">
<mask id="path-1-inside-1" fill="white">
<path fill-rule="evenodd" clip-rule="evenodd" d="M3.55091 0.5H27.154C29.1384 0.5 30.705 2.06658 30.705 4.05091V6.87076L38.4334 2.3799C39.1645 1.96214 40 2.58877 40 3.31984V20.8655C40 21.701 39.0601 22.2232 38.329 21.701L30.705 17.3146V20.1345C30.705 22.1188 29.1384 23.6854 27.154 23.6854H3.55091C1.56658 23.6854 0 22.0144 0 20.1345V4.05091C0 2.06658 1.56658 0.5 3.55091 0.5ZM30.705 9.27285V14.9125L37.9112 19.0901V5.0953L30.705 9.27285ZM27.154 2.58877H3.55091C2.7154 2.58877 2.08877 3.2154 2.08877 4.05091V20.1345C2.08877 20.8655 2.7154 21.5966 3.55091 21.5966H27.154C27.9896 21.5966 28.6162 20.8655 28.6162 20.1345V4.05091C28.6162 3.2154 27.9896 2.58877 27.154 2.58877Z"/>
</mask>
<path fill-rule="evenodd" clip-rule="evenodd" d="M3.55091 0.5H27.154C29.1384 0.5 30.705 2.06658 30.705 4.05091V6.87076L38.4334 2.3799C39.1645 1.96214 40 2.58877 40 3.31984V20.8655C40 21.701 39.0601 22.2232 38.329 21.701L30.705 17.3146V20.1345C30.705 22.1188 29.1384 23.6854 27.154 23.6854H3.55091C1.56658 23.6854 0 22.0144 0 20.1345V4.05091C0 2.06658 1.56658 0.5 3.55091 0.5ZM30.705 9.27285V14.9125L37.9112 19.0901V5.0953L30.705 9.27285ZM27.154 2.58877H3.55091C2.7154 2.58877 2.08877 3.2154 2.08877 4.05091V20.1345C2.08877 20.8655 2.7154 21.5966 3.55091 21.5966H27.154C27.9896 21.5966 28.6162 20.8655 28.6162 20.1345V4.05091C28.6162 3.2154 27.9896 2.58877 27.154 2.58877Z" fill="#5AC8FE"/>
<path d="M30.705 6.87076H28.705V10.3461L31.7098 8.60001L30.705 6.87076ZM38.4334 2.3799L37.4411 0.643409L37.4349 0.647004L37.4286 0.650645L38.4334 2.3799ZM38.329 21.701L39.4915 20.0736L39.4115 20.0165L39.3264 19.9675L38.329 21.701ZM30.705 17.3146L31.7024 15.5811L28.705 13.8565V17.3146H30.705ZM30.705 9.27285L29.7019 7.54257L28.705 8.1205V9.27285H30.705ZM30.705 14.9125H28.705V16.0649L29.7019 16.6428L30.705 14.9125ZM37.9112 19.0901L36.9082 20.8204L39.9112 22.5613V19.0901H37.9112ZM37.9112 5.0953H39.9112V1.62412L36.9082 3.36502L37.9112 5.0953ZM3.55091 2.5H27.154V-1.5H3.55091V2.5ZM27.154 2.5C28.0338 2.5 28.705 3.17115 28.705 4.05091H32.705C32.705 0.962009 30.243 -1.5 27.154 -1.5V2.5ZM28.705 4.05091V6.87076H32.705V4.05091H28.705ZM31.7098 8.60001L39.4383 4.10915L37.4286 0.650645L29.7001 5.14151L31.7098 8.60001ZM39.4257 4.11638C39.0512 4.3304 38.6361 4.24938 38.3983 4.09428C38.2064 3.96908 38 3.71389 38 3.31984H42C42 2.19473 41.3759 1.26068 40.5834 0.74384C39.7451 0.197096 38.5467 0.0116355 37.4411 0.643409L39.4257 4.11638ZM38 3.31984V20.8655H42V3.31984H38ZM38 20.8655C38 20.0991 38.8787 19.6359 39.4915 20.0736L37.1665 23.3285C39.2414 24.8106 42 23.303 42 20.8655H38ZM39.3264 19.9675L31.7024 15.5811L29.7076 19.0482L37.3316 23.4346L39.3264 19.9675ZM28.705 17.3146V20.1345H32.705V17.3146H28.705ZM28.705 20.1345C28.705 21.0142 28.0338 21.6854 27.154 21.6854V25.6854C30.243 25.6854 32.705 23.2234 32.705 20.1345H28.705ZM27.154 21.6854H3.55091V25.6854H27.154V21.6854ZM3.55091 21.6854C2.70905 21.6854 2 20.9481 2 20.1345H-2C-2 23.0806 0.42411 25.6854 3.55091 25.6854V21.6854ZM2 20.1345V4.05091H-2V20.1345H2ZM2 4.05091C2 3.17115 2.67115 2.5 3.55091 2.5V-1.5C0.46201 -1.5 -2 0.96201 -2 4.05091H2ZM28.705 9.27285V14.9125H32.705V9.27285H28.705ZM29.7019 16.6428L36.9082 20.8204L38.9143 17.3598L31.708 13.1823L29.7019 16.6428ZM39.9112 19.0901V5.0953H35.9112V19.0901H39.9112ZM36.9082 3.36502L29.7019 7.54257L31.708 11.0031L38.9143 6.82558L36.9082 3.36502ZM27.154 0.588773H3.55091V4.58877H27.154V0.588773ZM3.55091 0.588773C1.61084 0.588773 0.0887728 2.11084 0.0887728 4.05091H4.08877C4.08877 4.14667 4.04652 4.29496 3.92074 4.42074C3.79496 4.54652 3.64667 4.58877 3.55091 4.58877V0.588773ZM0.0887728 4.05091V20.1345H4.08877V4.05091H0.0887728ZM0.0887728 20.1345C0.0887728 21.877 1.52 23.5966 3.55091 23.5966V19.5966C3.74005 19.5966 3.88154 19.6834 3.9548 19.7604C4.01491 19.8235 4.08877 19.9406 4.08877 20.1345H0.0887728ZM3.55091 23.5966H27.154V19.5966H3.55091V23.5966ZM27.154 23.5966C29.185 23.5966 30.6162 21.877 30.6162 20.1345H26.6162C26.6162 19.9406 26.69 19.8235 26.7502 19.7604C26.8234 19.6834 26.9649 19.5966 27.154 19.5966V23.5966ZM30.6162 20.1345V4.05091H26.6162V20.1345H30.6162ZM30.6162 4.05091C30.6162 2.11084 29.0941 0.588773 27.154 0.588773V4.58877C27.0583 4.58877 26.91 4.54652 26.7842 4.42074C26.6584 4.29496 26.6162 4.14667 26.6162 4.05091H30.6162Z" fill="#5AC8FE" mask="url(#path-1-inside-1)"/>
<path d="M24.0864 12.3897L24.105 12.4003L24.1241 12.4099C24.1424 12.419 24.1526 12.4296 24.1608 12.4441C24.1708 12.4616 24.1795 12.4889 24.1795 12.5224C24.1795 12.5558 24.1708 12.5831 24.1608 12.6006C24.1526 12.6151 24.1424 12.6257 24.1241 12.6348L24.105 12.6444L24.0864 12.6551L16.9846 16.7282L16.9627 16.7407L16.9417 16.7547C16.9218 16.768 16.9083 16.7731 16.9016 16.7751C16.8949 16.7771 16.8911 16.7773 16.889 16.7773C16.8858 16.7773 16.8733 16.7764 16.8526 16.763C16.8068 16.7332 16.75 16.6579 16.75 16.5432V8.39703C16.75 8.34117 16.7634 8.30823 16.7733 8.2911C16.7838 8.27297 16.7956 8.26315 16.8053 8.25784C16.8146 8.25273 16.8262 8.24929 16.8422 8.25012C16.857 8.2509 16.891 8.2562 16.9417 8.28999L16.9627 8.30399L16.9846 8.31655L24.0864 12.3897Z" fill="#5AC8FE" stroke="#5AC8FE" stroke-width="1.5"/>
</svg>
