<?xml version="1.0" standalone="no"?>
<!DOCTYPE svg PUBLIC "-//W3C//DTD SVG 20010904//EN"
 "http://www.w3.org/TR/2001/REC-SVG-20010904/DTD/svg10.dtd">
<svg version="1.0" xmlns="http://www.w3.org/2000/svg"
 width="512.000000pt" height="512.000000pt" viewBox="0 0 512.000000 512.000000"
 preserveAspectRatio="xMidYMid meet">
<metadata>
Created by potrace 1.16, written by Peter Selinger 2001-2019
</metadata>
<g transform="translate(0.000000,512.000000) scale(0.100000,-0.100000)"
fill="#000000" stroke="none">
<path d="M4040 5064 c-186 -40 -400 -166 -400 -237 0 -29 33 -65 68 -74 16 -4
40 5 80 31 161 104 275 140 442 140 135 1 208 -16 325 -73 192 -95 337 -272
392 -481 24 -89 24 -272 0 -360 -70 -262 -275 -466 -537 -536 -89 -24 -272
-24 -360 0 -263 71 -465 273 -536 536 -12 44 -17 103 -18 180 0 122 14 194 60
303 14 32 22 67 19 77 -20 63 -96 82 -134 34 -46 -58 -90 -213 -99 -347 l-7
-97 -98 -44 c-128 -58 -270 -153 -392 -264 l-100 -90 -90 83 c-204 187 -400
295 -645 356 -81 20 -121 23 -270 23 -150 0 -187 -3 -259 -22 -173 -46 -319
-126 -446 -246 -75 -71 -85 -107 -40 -151 41 -42 76 -34 150 35 169 157 357
230 593 230 305 0 572 -118 832 -366 169 -161 179 -162 347 -3 122 115 197
170 323 237 118 63 115 63 135 -5 64 -223 247 -438 460 -542 122 -60 211 -82
356 -88 144 -6 245 9 368 57 41 16 76 28 77 27 9 -10 56 -210 65 -282 14 -107
6 -309 -16 -410 -35 -162 -102 -321 -194 -460 -44 -67 -301 -336 -927 -974
l-259 -263 -120 -25 c-91 -19 -139 -23 -200 -20 -91 6 -735 121 -765 137 -58
31 -52 137 10 170 14 8 75 3 217 -15 336 -42 367 -44 435 -35 88 13 149 41
207 95 71 66 94 127 89 230 -5 98 -37 164 -113 233 -86 77 -161 105 -415 153
-182 34 -254 43 -375 47 -166 4 -187 2 -641 -76 l-282 -49 -145 152 c-164 171
-235 264 -295 386 -94 191 -127 341 -127 574 0 222 24 333 114 543 28 65 30
76 19 99 -19 39 -60 60 -95 48 -52 -19 -140 -228 -179 -430 -25 -124 -25 -395
-1 -520 64 -327 200 -570 461 -825 l57 -55 -153 -25 -153 -26 -7 26 c-11 38
-43 68 -85 79 -50 14 -635 14 -685 1 -20 -6 -46 -22 -58 -37 -20 -25 -20 -36
-20 -730 l0 -705 29 -29 29 -29 360 0 360 0 31 26 c17 14 34 38 38 53 l8 28
690 -189 c380 -103 728 -195 775 -204 125 -24 333 -15 459 20 158 44 1534 487
1572 506 56 29 132 104 163 161 59 107 44 255 -32 333 -91 95 -232 118 -439
72 -65 -14 -194 -41 -286 -60 l-168 -33 88 91 c49 50 256 263 462 473 205 210
398 413 428 450 137 171 231 380 280 619 13 67 18 134 17 269 0 192 -16 299
-67 448 l-23 69 91 92 c96 98 137 159 190 283 70 163 86 386 41 565 -80 316
-328 564 -644 644 -77 19 -119 24 -221 23 -69 0 -155 -7 -191 -15z m-1430
-3293 c244 -46 287 -60 348 -116 111 -100 83 -241 -56 -281 -65 -19 -111 -17
-411 21 -236 30 -273 31 -328 4 -152 -73 -187 -293 -65 -406 54 -50 100 -63
459 -129 462 -86 455 -86 833 -10 157 31 373 75 480 96 107 21 229 46 270 55
119 26 213 1 248 -65 33 -63 -18 -166 -103 -212 -54 -28 -1396 -462 -1559
-503 -137 -35 -240 -41 -351 -21 -49 8 -396 99 -770 201 -374 102 -697 190
-717 196 l-38 10 0 497 0 498 268 43 c147 24 420 69 607 102 418 71 384 67
535 64 97 -2 176 -12 350 -44z m-1920 -666 l0 -615 -270 0 -270 0 0 615 0 615
270 0 270 0 0 -615z"/>
<path d="M4180 4540 c-18 -18 -20 -33 -20 -145 l0 -125 -115 0 c-149 0 -186
-17 -185 -83 0 -12 7 -31 16 -42 13 -18 30 -21 147 -25 l132 -5 5 -132 c4
-117 7 -134 25 -147 11 -9 30 -16 42 -16 66 -1 83 36 83 185 l0 115 125 0
c112 0 127 2 145 20 25 25 26 71 1 101 -18 23 -27 24 -144 27 l-125 4 -4 125
c-3 117 -4 126 -27 144 -30 25 -76 24 -101 -1z"/>
<path d="M2703 3168 c-11 -13 -82 -132 -158 -266 -76 -133 -142 -241 -147
-240 -5 2 -48 66 -97 143 -135 214 -152 213 -291 -18 l-95 -157 -222 0 c-122
0 -229 -3 -238 -6 -8 -4 -23 -20 -31 -36 -13 -25 -13 -35 -3 -59 6 -17 20 -34
30 -39 10 -6 131 -10 279 -10 306 0 271 -14 365 147 33 57 62 103 65 103 3 0
41 -58 84 -128 44 -70 91 -139 104 -154 32 -35 74 -37 105 -5 12 12 85 131
161 265 77 134 143 239 147 235 5 -5 92 -162 195 -348 102 -187 193 -348 202
-357 9 -11 30 -18 53 -18 47 0 47 0 199 253 l113 187 308 0 308 0 20 26 c27
34 27 64 0 98 l-20 26 -348 0 c-262 0 -351 -3 -363 -12 -9 -7 -61 -89 -116
-181 l-99 -168 -193 353 c-106 194 -200 361 -208 371 -22 25 -83 23 -109 -5z"/>
</g>
</svg>
