<svg width="174" height="42" viewBox="0 0 174 42" fill="none" xmlns="http://www.w3.org/2000/svg">
<path fill-rule="evenodd" clip-rule="evenodd" d="M40.424 19.9717C40.424 29.9223 33.2155 38.2049 23.7314 39.8587L21.5406 27.4205C25.0883 26.7986 27.8021 23.689 27.8021 19.9576C27.8021 16.2261 25.1025 13.1166 21.5406 12.4947L23.7314 0.0565376C33.2155 1.73852 40.424 10.0212 40.424 19.9717Z" fill="#F75D34"/>
<path fill-rule="evenodd" clip-rule="evenodd" d="M18.9117 27.4346L16.7208 39.8728C7.23674 38.2049 0.0282593 29.9364 0.0282593 19.9859C0.0282593 10.0353 7.23674 1.75265 16.7208 0.0989418L18.9117 12.5371C15.3639 13.159 12.6502 16.2686 12.6502 20C12.6643 23.7032 15.3639 26.8127 18.9117 27.4346Z" fill="#F75D34"/>
<path fill-rule="evenodd" clip-rule="evenodd" d="M49.6215 20.2606C49.6215 14.5504 53.8617 10.1829 59.7133 10.1829C63.2328 10.1829 66.3282 11.9355 68.0243 14.6776L64.1939 16.8967C63.3317 15.3984 61.678 14.508 59.7133 14.508C56.2787 14.508 54.0596 16.8119 54.0596 20.2748C54.0596 23.7377 56.2787 26.0415 59.7133 26.0415C61.678 26.0415 63.3741 25.1511 64.1939 23.6529L68.0243 25.8719C66.3564 28.614 63.261 30.3666 59.7133 30.3666C53.8617 30.3525 49.6215 25.9709 49.6215 20.2606Z" fill="#24282C"/>
<path d="M83.9678 15.2288V30.3808H79.6709V28.614C78.7239 29.7023 77.3247 30.3666 75.4024 30.3666C71.6568 30.3666 68.5614 27.0734 68.5614 22.8048C68.5614 18.5362 71.6568 15.243 75.4024 15.243C77.3247 15.243 78.7239 15.9073 79.6709 16.9956V15.243H83.9678V15.2288ZM79.6709 22.7907C79.6709 20.6423 78.2434 19.2995 76.2646 19.2995C74.2858 19.2995 72.8582 20.6423 72.8582 22.7907C72.8582 24.9391 74.2858 26.2818 76.2646 26.2818C78.2434 26.2818 79.6709 24.9391 79.6709 22.7907Z" fill="#24282C"/>
<path fill-rule="evenodd" clip-rule="evenodd" d="M93.7063 15.2288V20.1334C91.9112 19.8507 89.3671 20.5716 89.3671 23.4267V30.3666H85.0278V15.2288H89.3812V18.084C89.9607 16.1476 91.8971 15.2288 93.7063 15.2288Z" fill="#24282C"/>
<path d="M112.674 20.2748C112.674 25.985 108.434 30.3666 102.865 30.3666H94.7805V10.1829H102.865C108.434 10.1829 112.674 14.5645 112.674 20.2748ZM108.236 20.2748C108.236 16.8119 106.045 14.6211 102.865 14.6211H99.4024V25.9285H102.865C106.031 25.9285 108.236 23.7377 108.236 20.2748Z" fill="#24282C"/>
<path d="M121.197 26.508C122.371 26.508 123.374 26.0557 123.954 25.4196L127.388 27.3984C125.989 29.349 123.869 30.3525 121.141 30.3525C116.25 30.3525 113.212 27.0592 113.212 22.7907C113.212 18.5221 116.307 15.2288 120.83 15.2288C125.014 15.2288 128.109 18.4656 128.109 22.7907C128.109 23.3984 128.053 23.9638 127.939 24.515H117.777C118.3 25.9991 119.629 26.508 121.197 26.508ZM123.841 21.2924C123.388 19.6387 122.088 19.0309 120.802 19.0309C119.176 19.0309 118.074 19.8366 117.678 21.2924H123.841Z" fill="#24282C"/>
<path fill-rule="evenodd" clip-rule="evenodd" d="M137.763 30.3808L133.325 24.2606V30.3808H129.169V10.1829H133.325V21.2924L137.48 15.2288H142.328L137.282 22.5645L142.455 30.3666H137.763V30.3808Z" fill="#24282C"/>
<path fill-rule="evenodd" clip-rule="evenodd" d="M156.844 20.9673V30.3808H152.689V21.5751C152.689 19.8507 151.614 19.0592 150.286 19.0592C148.759 19.0592 147.713 19.9497 147.713 21.9143V30.3808H143.558V10.1829H147.713V16.9249C148.462 15.8931 149.848 15.2288 151.671 15.2288C154.47 15.2288 156.844 17.2218 156.844 20.9673Z" fill="#24282C"/>
<path d="M157.918 22.7907C157.918 18.5221 161.296 15.2288 165.508 15.2288C169.72 15.2288 173.098 18.5221 173.098 22.7907C173.098 27.0592 169.72 30.3525 165.508 30.3525C161.296 30.3525 157.918 27.0592 157.918 22.7907ZM168.802 22.7907C168.802 20.7553 167.374 19.4126 165.508 19.4126C163.643 19.4126 162.215 20.7553 162.215 22.7907C162.215 24.826 163.643 26.1688 165.508 26.1688C167.374 26.1688 168.802 24.826 168.802 22.7907Z" fill="#24282C"/>
<path d="M76.6597 36.013C77.2038 36.3094 77.451 36.754 77.451 37.3961C77.451 37.89 77.2532 38.3346 76.907 38.6309C76.5608 38.9767 76.1157 39.1249 75.5717 39.1249H73V33.0988H75.3739C75.8684 33.0988 76.3135 33.247 76.6597 33.5927C77.0059 33.8891 77.2038 34.3336 77.2038 34.8276C77.2038 35.2721 77.0554 35.7167 76.6597 36.013ZM75.3739 34.1855H74.1869V35.5191H75.3739C75.5717 35.5191 75.7201 35.4697 75.819 35.3215C75.9674 35.1733 76.0168 35.0252 76.0168 34.8276C76.0168 34.63 75.9674 34.4818 75.819 34.3336C75.7201 34.2842 75.5717 34.1855 75.3739 34.1855ZM75.5717 38.0382C75.7695 38.0382 75.9179 37.9888 76.0663 37.8406C76.2146 37.6925 76.2641 37.5443 76.2641 37.3467C76.2641 37.1491 76.2146 37.0009 76.0663 36.8528C75.9179 36.7046 75.7695 36.6552 75.5717 36.6552H74.1869V38.0876H75.5717V38.0382Z" fill="#24282C"/>
<path d="M81.6548 33.0988H82.8417V39.1249H81.6548V36.6058H79.4293V39.1249H78.2423V33.0988H79.4293V35.5191H81.6548V33.0988Z" fill="#24282C"/>
<path d="M87.9357 39.1249L87.5401 38.0382H85.0673L84.7211 39.1249H83.4352L85.5618 33.0988H87.0455L89.1721 39.1249H87.9357ZM85.4629 36.9515H87.1444L86.2542 34.4818L85.4629 36.9515Z" fill="#24282C"/>
<path d="M93.0297 39.1249L91.7933 37.0503H90.9031V39.1249H89.7161V33.0988H92.1395C92.6835 33.0988 93.178 33.2964 93.5737 33.6915C93.9693 34.0867 94.1672 34.5312 94.1672 35.1239C94.1672 35.5191 94.0682 35.8649 93.8704 36.1612C93.6726 36.4576 93.3759 36.7046 93.0297 36.9021L94.365 39.1743H93.0297V39.1249ZM90.9031 34.1855V35.9637H92.1395C92.3867 35.9637 92.5351 35.8649 92.7329 35.7167C92.8813 35.5191 92.9802 35.3215 92.9802 35.0746C92.9802 34.8276 92.8813 34.63 92.7329 34.4324C92.5846 34.2349 92.3867 34.1855 92.1395 34.1855H90.9031Z" fill="#24282C"/>
<path d="M100.052 38.3346C99.459 38.9273 98.7171 39.2237 97.8269 39.2237C96.9367 39.2237 96.1949 38.9273 95.6014 38.3346C95.0079 37.7418 94.7112 37.0009 94.7112 36.1118C94.7112 35.2227 95.0079 34.4818 95.6014 33.8891C96.1949 33.2964 96.9367 33 97.8269 33C98.7171 33 99.459 33.2964 100.052 33.8891C100.646 34.4818 100.992 35.2227 100.992 36.1118C100.992 37.0009 100.646 37.7418 100.052 38.3346ZM96.4421 37.5443C96.8378 37.9394 97.2829 38.0876 97.8269 38.0876C98.3709 38.0876 98.8655 37.89 99.2117 37.5443C99.5579 37.1985 99.7557 36.7046 99.7557 36.1118C99.7557 35.5191 99.5579 35.0746 99.2117 34.6794C98.816 34.2842 98.3709 34.1361 97.8269 34.1361C97.2829 34.1361 96.7883 34.3336 96.4421 34.6794C96.0465 35.0746 95.8981 35.5191 95.8981 36.1118C95.8981 36.7046 96.0465 37.1491 96.4421 37.5443Z" fill="#24282C"/>
<path d="M103.663 39.2731C103.069 39.2731 102.575 39.1249 102.13 38.8779C101.734 38.6309 101.437 38.2358 101.289 37.7912L102.327 37.1985C102.575 37.7912 103.02 38.137 103.712 38.137C104.058 38.137 104.306 38.0876 104.454 37.9394C104.602 37.8406 104.701 37.6431 104.701 37.4949C104.701 37.2973 104.602 37.0997 104.405 37.0009C104.207 36.9021 103.86 36.754 103.366 36.6058C103.119 36.507 102.871 36.4576 102.674 36.3588C102.476 36.26 102.278 36.1612 102.13 36.013C101.932 35.8649 101.783 35.7167 101.684 35.5191C101.586 35.3215 101.536 35.0746 101.536 34.7782C101.536 34.2349 101.734 33.7903 102.13 33.4939C102.525 33.1482 102.97 33 103.514 33C104.009 33 104.454 33.0988 104.8 33.3458C105.196 33.5927 105.443 33.9385 105.69 34.3336L104.701 34.9264C104.454 34.4324 104.058 34.1361 103.564 34.1361C103.316 34.1361 103.119 34.1855 102.97 34.2842C102.822 34.383 102.772 34.5312 102.772 34.7288C102.772 34.9264 102.871 35.0746 103.02 35.1733C103.168 35.2721 103.465 35.4203 103.91 35.5685C104.108 35.6179 104.256 35.6673 104.306 35.7167C104.405 35.7661 104.553 35.8155 104.701 35.8649C104.85 35.9143 104.998 36.013 105.097 36.0624C105.196 36.1118 105.295 36.2106 105.394 36.3094C105.493 36.4082 105.591 36.507 105.641 36.6058C105.69 36.7046 105.74 36.8527 105.789 37.0009C105.839 37.1491 105.839 37.2973 105.839 37.4949C105.839 38.0382 105.641 38.4828 105.245 38.8285C104.85 39.0755 104.306 39.2731 103.663 39.2731Z" fill="#24282C"/>
<path d="M110.488 39.1249L110.092 38.0382H107.619L107.273 39.1249H105.987L108.114 33.0988H109.597L111.724 39.1249H110.488ZM108.015 36.9515H109.696L108.806 34.4818L108.015 36.9515Z" fill="#24282C"/>
<path d="M119.192 39.1249H117.807L115.631 36.3094V39.1249H114.444V33.0988H115.631V35.7661L117.708 33.0988H119.093L116.867 36.013L119.192 39.1249Z" fill="#24282C"/>
<path d="M123.89 39.1249L123.495 38.0382H121.022L120.676 39.1249H119.39L121.516 33.0988H123L125.127 39.1249H123.89ZM121.417 36.9515H123.099L122.209 34.4818L121.417 36.9515Z" fill="#24282C"/>
<path d="M129.034 39.1249L127.797 37.0503H126.907V39.1249H125.72V33.0988H128.143C128.687 33.0988 129.182 33.2964 129.578 33.6915C129.973 34.0867 130.171 34.5312 130.171 35.1239C130.171 35.5191 130.072 35.8649 129.874 36.1612C129.677 36.4576 129.38 36.7046 129.034 36.9021L130.369 39.1743H129.034V39.1249ZM126.907 34.1855V35.9637H128.143C128.391 35.9637 128.539 35.8649 128.737 35.7167C128.885 35.5191 128.984 35.3215 128.984 35.0746C128.984 34.8276 128.885 34.63 128.737 34.4324C128.589 34.2349 128.391 34.1855 128.143 34.1855H126.907Z" fill="#24282C"/>
<path d="M137.886 39.1249H136.501L134.325 36.3094V39.1249H133.138V33.0988H134.325V35.7661L136.403 33.0988H137.787L135.562 36.013L137.886 39.1249Z" fill="#24282C"/>
<path d="M139.667 37.9888H142.238V39.1249H138.48V33.0988H142.189V34.2349H139.667V35.5191H141.942V36.6552H139.667V37.9888V37.9888Z" fill="#24282C"/>
<path d="M147.58 33.0988C148.42 33.0988 149.113 33.3952 149.657 33.9879C150.201 34.5806 150.498 35.2721 150.498 36.1118C150.498 36.9515 150.201 37.6925 149.657 38.2358C149.113 38.8285 148.42 39.1249 147.58 39.1249H145.156V33.0988H147.58ZM147.58 37.9888C148.124 37.9888 148.519 37.7912 148.865 37.4455C149.212 37.0997 149.36 36.6552 149.36 36.1118C149.36 35.5685 149.212 35.124 148.865 34.7288C148.519 34.383 148.124 34.1855 147.58 34.1855H146.393V37.9394H147.58V37.9888Z" fill="#24282C"/>
<path d="M152.525 37.9888H155.097V39.1249H151.338V33.0988H155.047V34.2349H152.525V35.5191H154.8V36.6552H152.525V37.9888V37.9888Z" fill="#24282C"/>
<path d="M160.636 39.1249H159.251L157.075 36.3094V39.1249H155.888V33.0988H157.075V35.7661L159.152 33.0988H160.537L158.312 36.013L160.636 39.1249Z" fill="#24282C"/>
<path d="M164.691 33.0988H165.878V39.1249H164.691V36.6058H162.466V39.1249H161.279V33.0988H162.466V35.5191H164.691V33.0988Z" fill="#24282C"/>
<path d="M172.06 38.3346C171.467 38.9273 170.725 39.2237 169.835 39.2237C168.945 39.2237 168.203 38.9273 167.609 38.3346C167.016 37.7418 166.719 37.0009 166.719 36.1118C166.719 35.2227 167.016 34.4818 167.609 33.8891C168.203 33.2964 168.945 33 169.835 33C170.725 33 171.467 33.2964 172.06 33.8891C172.654 34.4818 173 35.2227 173 36.1118C173 37.0009 172.703 37.7418 172.06 38.3346ZM168.45 37.5443C168.846 37.9394 169.291 38.0876 169.835 38.0876C170.379 38.0876 170.873 37.89 171.22 37.5443C171.566 37.1985 171.764 36.7046 171.764 36.1118C171.764 35.5191 171.566 35.0746 171.22 34.6794C170.824 34.2842 170.379 34.1361 169.835 34.1361C169.291 34.1361 168.796 34.3336 168.45 34.6794C168.054 35.0746 167.906 35.5191 167.906 36.1118C167.906 36.7046 168.104 37.1491 168.45 37.5443Z" fill="#24282C"/>
</svg>
