<svg width="556" height="414" viewBox="0 0 556 414" fill="none" xmlns="http://www.w3.org/2000/svg">
<g clip-path="url(#clip0)">
<path d="M63.063 310.5V321H61.008V314.19L58.053 319.065H57.813L54.858 314.205V321H52.788V310.5H54.918L57.933 315.465L60.933 310.5H63.063ZM66.5644 318.045C66.8244 318.985 67.5294 319.455 68.6794 319.455C69.4194 319.455 69.9794 319.205 70.3594 318.705L71.9194 319.605C71.1794 320.675 70.0894 321.21 68.6494 321.21C67.4094 321.21 66.4144 320.835 65.6644 320.085C64.9144 319.335 64.5394 318.39 64.5394 317.25C64.5394 316.12 64.9094 315.18 65.6494 314.43C66.3894 313.67 67.3394 313.29 68.4994 313.29C69.5994 313.29 70.5044 313.67 71.2144 314.43C71.9344 315.19 72.2944 316.13 72.2944 317.25C72.2944 317.5 72.2694 317.765 72.2194 318.045H66.5644ZM66.5344 316.545H70.3594C70.2494 316.035 70.0194 315.655 69.6694 315.405C69.3294 315.155 68.9394 315.03 68.4994 315.03C67.9794 315.03 67.5494 315.165 67.2094 315.435C66.8694 315.695 66.6444 316.065 66.5344 316.545ZM79.2717 310.5H81.2067V321H79.2717V320.115C78.7017 320.845 77.8917 321.21 76.8417 321.21C75.8317 321.21 74.9667 320.83 74.2467 320.07C73.5367 319.3 73.1817 318.36 73.1817 317.25C73.1817 316.14 73.5367 315.205 74.2467 314.445C74.9667 313.675 75.8317 313.29 76.8417 313.29C77.8917 313.29 78.7017 313.655 79.2717 314.385V310.5ZM75.7017 318.78C76.1017 319.17 76.6017 319.365 77.2017 319.365C77.8017 319.365 78.2967 319.17 78.6867 318.78C79.0767 318.38 79.2717 317.87 79.2717 317.25C79.2717 316.63 79.0767 316.125 78.6867 315.735C78.2967 315.335 77.8017 315.135 77.2017 315.135C76.6017 315.135 76.1017 315.335 75.7017 315.735C75.3117 316.125 75.1167 316.63 75.1167 317.25C75.1167 317.87 75.3117 318.38 75.7017 318.78ZM83.9363 312.6C83.6163 312.6 83.3363 312.485 83.0963 312.255C82.8663 312.015 82.7513 311.735 82.7513 311.415C82.7513 311.095 82.8663 310.815 83.0963 310.575C83.3363 310.335 83.6163 310.215 83.9363 310.215C84.2663 310.215 84.5463 310.335 84.7763 310.575C85.0163 310.815 85.1363 311.095 85.1363 311.415C85.1363 311.735 85.0163 312.015 84.7763 312.255C84.5463 312.485 84.2663 312.6 83.9363 312.6ZM82.9763 321V313.5H84.9113V321H82.9763ZM92.3824 313.5H94.3174V321H92.3824V320.115C91.8024 320.845 90.9874 321.21 89.9374 321.21C88.9374 321.21 88.0774 320.83 87.3574 320.07C86.6474 319.3 86.2924 318.36 86.2924 317.25C86.2924 316.14 86.6474 315.205 87.3574 314.445C88.0774 313.675 88.9374 313.29 89.9374 313.29C90.9874 313.29 91.8024 313.655 92.3824 314.385V313.5ZM88.8124 318.78C89.2024 319.17 89.6974 319.365 90.2974 319.365C90.8974 319.365 91.3924 319.17 91.7824 318.78C92.1824 318.38 92.3824 317.87 92.3824 317.25C92.3824 316.63 92.1824 316.125 91.7824 315.735C91.3924 315.335 90.8974 315.135 90.2974 315.135C89.6974 315.135 89.2024 315.335 88.8124 315.735C88.4224 316.125 88.2274 316.63 88.2274 317.25C88.2274 317.87 88.4224 318.38 88.8124 318.78ZM52.4149 329.48H48.2149V331.97H52.2949V333.95H48.2149V338H46.1449V327.5H52.4149V329.48ZM60.2232 337.07C59.4532 337.83 58.5132 338.21 57.4032 338.21C56.2932 338.21 55.3532 337.83 54.5832 337.07C53.8232 336.3 53.4432 335.36 53.4432 334.25C53.4432 333.14 53.8232 332.205 54.5832 331.445C55.3532 330.675 56.2932 330.29 57.4032 330.29C58.5132 330.29 59.4532 330.675 60.2232 331.445C60.9932 332.205 61.3782 333.14 61.3782 334.25C61.3782 335.36 60.9932 336.3 60.2232 337.07ZM55.9482 335.735C56.3382 336.125 56.8232 336.32 57.4032 336.32C57.9832 336.32 58.4682 336.125 58.8582 335.735C59.2482 335.345 59.4432 334.85 59.4432 334.25C59.4432 333.65 59.2482 333.155 58.8582 332.765C58.4682 332.375 57.9832 332.18 57.4032 332.18C56.8232 332.18 56.3382 332.375 55.9482 332.765C55.5682 333.155 55.3782 333.65 55.3782 334.25C55.3782 334.85 55.5682 335.345 55.9482 335.735ZM64.6745 331.79C64.8545 331.31 65.1495 330.95 65.5595 330.71C65.9795 330.47 66.4445 330.35 66.9545 330.35V332.51C66.3645 332.44 65.8345 332.56 65.3645 332.87C64.9045 333.18 64.6745 333.695 64.6745 334.415V338H62.7395V330.5H64.6745V331.79ZM76.3812 330.29C77.2412 330.29 77.9262 330.57 78.4362 331.13C78.9562 331.69 79.2162 332.44 79.2162 333.38V338H77.2812V333.515C77.2812 333.065 77.1712 332.715 76.9512 332.465C76.7312 332.215 76.4212 332.09 76.0212 332.09C75.5812 332.09 75.2362 332.235 74.9862 332.525C74.7462 332.815 74.6262 333.235 74.6262 333.785V338H72.6912V333.515C72.6912 333.065 72.5812 332.715 72.3612 332.465C72.1412 332.215 71.8312 332.09 71.4312 332.09C71.0012 332.09 70.6562 332.235 70.3962 332.525C70.1462 332.815 70.0212 333.235 70.0212 333.785V338H68.0862V330.5H70.0212V331.295C70.4712 330.625 71.1662 330.29 72.1062 330.29C73.0262 330.29 73.7062 330.65 74.1462 331.37C74.6462 330.65 75.3912 330.29 76.3812 330.29ZM86.5596 330.5H88.4946V338H86.5596V337.115C85.9796 337.845 85.1646 338.21 84.1146 338.21C83.1146 338.21 82.2546 337.83 81.5346 337.07C80.8246 336.3 80.4696 335.36 80.4696 334.25C80.4696 333.14 80.8246 332.205 81.5346 331.445C82.2546 330.675 83.1146 330.29 84.1146 330.29C85.1646 330.29 85.9796 330.655 86.5596 331.385V330.5ZM82.9896 335.78C83.3796 336.17 83.8746 336.365 84.4746 336.365C85.0746 336.365 85.5696 336.17 85.9596 335.78C86.3596 335.38 86.5596 334.87 86.5596 334.25C86.5596 333.63 86.3596 333.125 85.9596 332.735C85.5696 332.335 85.0746 332.135 84.4746 332.135C83.8746 332.135 83.3796 332.335 82.9896 332.735C82.5996 333.125 82.4046 333.63 82.4046 334.25C82.4046 334.87 82.5996 335.38 82.9896 335.78ZM94.5393 332.36H92.8443V335.48C92.8443 335.74 92.9093 335.93 93.0393 336.05C93.1693 336.17 93.3593 336.24 93.6093 336.26C93.8593 336.27 94.1693 336.265 94.5393 336.245V338C93.2093 338.15 92.2693 338.025 91.7193 337.625C91.1793 337.225 90.9093 336.51 90.9093 335.48V332.36H89.6043V330.5H90.9093V328.985L92.8443 328.4V330.5H94.5393V332.36ZM97.5274 332.63C97.5274 332.83 97.6574 332.995 97.9174 333.125C98.1874 333.245 98.5124 333.355 98.8924 333.455C99.2724 333.545 99.6524 333.665 100.032 333.815C100.412 333.955 100.732 334.195 100.992 334.535C101.262 334.875 101.397 335.3 101.397 335.81C101.397 336.58 101.107 337.175 100.527 337.595C99.9574 338.005 99.2424 338.21 98.3824 338.21C96.8424 338.21 95.7924 337.615 95.2324 336.425L96.9124 335.48C97.1324 336.13 97.6224 336.455 98.3824 336.455C99.0724 336.455 99.4174 336.24 99.4174 335.81C99.4174 335.61 99.2824 335.45 99.0124 335.33C98.7524 335.2 98.4324 335.085 98.0524 334.985C97.6724 334.885 97.2924 334.76 96.9124 334.61C96.5324 334.46 96.2074 334.225 95.9374 333.905C95.6774 333.575 95.5474 333.165 95.5474 332.675C95.5474 331.935 95.8174 331.355 96.3574 330.935C96.9074 330.505 97.5874 330.29 98.3974 330.29C99.0074 330.29 99.5624 330.43 100.062 330.71C100.562 330.98 100.957 331.37 101.247 331.88L99.5974 332.78C99.3574 332.27 98.9574 332.015 98.3974 332.015C98.1474 332.015 97.9374 332.07 97.7674 332.18C97.6074 332.29 97.5274 332.44 97.5274 332.63Z" fill="#9AA0A9"/>
<path d="M27.9858 168.21C26.4058 168.21 25.1008 167.685 24.0708 166.635C23.0408 165.585 22.5258 164.29 22.5258 162.75C22.5258 161.2 23.0408 159.905 24.0708 158.865C25.1008 157.815 26.4058 157.29 27.9858 157.29C28.9358 157.29 29.8108 157.515 30.6108 157.965C31.4208 158.405 32.0508 159.005 32.5008 159.765L30.7158 160.8C30.4558 160.33 30.0858 159.965 29.6058 159.705C29.1258 159.435 28.5858 159.3 27.9858 159.3C26.9658 159.3 26.1408 159.62 25.5108 160.26C24.8908 160.9 24.5808 161.73 24.5808 162.75C24.5808 163.76 24.8908 164.585 25.5108 165.225C26.1408 165.865 26.9658 166.185 27.9858 166.185C28.5858 166.185 29.1258 166.055 29.6058 165.795C30.0958 165.525 30.4658 165.16 30.7158 164.7L32.5008 165.735C32.0508 166.495 31.4258 167.1 30.6258 167.55C29.8258 167.99 28.9458 168.21 27.9858 168.21ZM40.1163 167.07C39.3463 167.83 38.4063 168.21 37.2963 168.21C36.1863 168.21 35.2463 167.83 34.4763 167.07C33.7163 166.3 33.3363 165.36 33.3363 164.25C33.3363 163.14 33.7163 162.205 34.4763 161.445C35.2463 160.675 36.1863 160.29 37.2963 160.29C38.4063 160.29 39.3463 160.675 40.1163 161.445C40.8863 162.205 41.2713 163.14 41.2713 164.25C41.2713 165.36 40.8863 166.3 40.1163 167.07ZM35.8413 165.735C36.2313 166.125 36.7163 166.32 37.2963 166.32C37.8763 166.32 38.3613 166.125 38.7513 165.735C39.1413 165.345 39.3363 164.85 39.3363 164.25C39.3363 163.65 39.1413 163.155 38.7513 162.765C38.3613 162.375 37.8763 162.18 37.2963 162.18C36.7163 162.18 36.2313 162.375 35.8413 162.765C35.4613 163.155 35.2713 163.65 35.2713 164.25C35.2713 164.85 35.4613 165.345 35.8413 165.735ZM46.8026 160.29C47.6226 160.29 48.2976 160.565 48.8276 161.115C49.3676 161.665 49.6376 162.425 49.6376 163.395V168H47.7026V163.635C47.7026 163.135 47.5676 162.755 47.2976 162.495C47.0276 162.225 46.6676 162.09 46.2176 162.09C45.7176 162.09 45.3176 162.245 45.0176 162.555C44.7176 162.865 44.5676 163.33 44.5676 163.95V168H42.6326V160.5H44.5676V161.34C45.0376 160.64 45.7826 160.29 46.8026 160.29ZM55.5798 162.36H53.8848V165.48C53.8848 165.74 53.9498 165.93 54.0798 166.05C54.2098 166.17 54.3998 166.24 54.6498 166.26C54.8998 166.27 55.2098 166.265 55.5798 166.245V168C54.2498 168.15 53.3098 168.025 52.7598 167.625C52.2198 167.225 51.9498 166.51 51.9498 165.48V162.36H50.6448V160.5H51.9498V158.985L53.8848 158.4V160.5H55.5798V162.36ZM58.3447 165.045C58.6047 165.985 59.3097 166.455 60.4597 166.455C61.1997 166.455 61.7597 166.205 62.1397 165.705L63.6997 166.605C62.9597 167.675 61.8697 168.21 60.4297 168.21C59.1897 168.21 58.1947 167.835 57.4447 167.085C56.6947 166.335 56.3197 165.39 56.3197 164.25C56.3197 163.12 56.6897 162.18 57.4297 161.43C58.1697 160.67 59.1197 160.29 60.2797 160.29C61.3797 160.29 62.2847 160.67 62.9947 161.43C63.7147 162.19 64.0747 163.13 64.0747 164.25C64.0747 164.5 64.0497 164.765 63.9997 165.045H58.3447ZM58.3147 163.545H62.1397C62.0297 163.035 61.7997 162.655 61.4497 162.405C61.1097 162.155 60.7197 162.03 60.2797 162.03C59.7597 162.03 59.3297 162.165 58.9897 162.435C58.6497 162.695 58.4247 163.065 58.3147 163.545ZM69.5955 160.29C70.4155 160.29 71.0905 160.565 71.6205 161.115C72.1605 161.665 72.4305 162.425 72.4305 163.395V168H70.4955V163.635C70.4955 163.135 70.3605 162.755 70.0905 162.495C69.8205 162.225 69.4605 162.09 69.0105 162.09C68.5105 162.09 68.1105 162.245 67.8105 162.555C67.5105 162.865 67.3605 163.33 67.3605 163.95V168H65.4255V160.5H67.3605V161.34C67.8305 160.64 68.5755 160.29 69.5955 160.29ZM78.3728 162.36H76.6778V165.48C76.6778 165.74 76.7428 165.93 76.8728 166.05C77.0028 166.17 77.1928 166.24 77.4428 166.26C77.6928 166.27 78.0028 166.265 78.3728 166.245V168C77.0428 168.15 76.1028 168.025 75.5528 167.625C75.0128 167.225 74.7428 166.51 74.7428 165.48V162.36H73.4378V160.5H74.7428V158.985L76.6778 158.4V160.5H78.3728V162.36Z" fill="#9AA0A9"/>
<path fill-rule="evenodd" clip-rule="evenodd" d="M285.413 384.191C237.085 384.19 189.395 361.88 158.879 319.879C108.27 250.222 123.765 152.377 193.426 101.766C221.082 81.6728 253.181 72 285.003 72C333.331 72 381.02 94.3103 411.533 136.313C462.147 205.97 446.649 303.814 376.992 354.424C349.335 374.518 317.236 384.191 285.413 384.191ZM285.095 93.2285C257.613 93.2285 229.874 101.604 205.938 118.993C145.683 162.771 132.328 247.108 176.104 307.364C202.495 343.685 243.614 362.963 285.318 362.963C312.801 362.963 340.54 354.588 364.474 337.198C424.731 293.421 438.092 209.083 394.311 148.828C367.921 112.508 326.8 93.2285 285.095 93.2285Z" fill="#F4F6F8"/>
<path fill-rule="evenodd" clip-rule="evenodd" d="M284.889 413.283C227.513 413.283 181 409.879 181 405.679C181 401.856 219.529 398.693 269.712 398.155C274.943 398.589 280.198 398.808 285.456 398.808C290.65 398.807 295.855 398.594 301.047 398.165C350.752 398.734 388.781 401.881 388.781 405.679C388.781 409.879 342.267 413.283 284.889 413.283Z" fill="#F4F6F8"/>
<g filter="url(#filter0_d)">
<path fill-rule="evenodd" clip-rule="evenodd" d="M235.674 407.762H203.694L255.986 282.962H287.968L235.674 407.762Z" fill="url(#paint0_linear)"/>
</g>
<g filter="url(#filter1_d)">
<path fill-rule="evenodd" clip-rule="evenodd" d="M305.874 282.962H273.894L326.186 407.762H358.168L305.874 282.962Z" fill="url(#paint1_linear)"/>
</g>
<path fill-rule="evenodd" clip-rule="evenodd" d="M388.96 229.922C388.96 288.508 341.466 336.002 282.88 336.002C224.293 336.002 176.8 288.508 176.8 229.922C176.8 171.335 224.293 123.842 282.88 123.842C341.466 123.842 388.96 171.335 388.96 229.922Z" fill="#F4F6F8"/>
<path d="M282.88 321.962C232.129 321.962 190.84 280.673 190.84 229.922C190.84 179.171 232.129 137.882 282.88 137.882C333.631 137.882 374.92 179.171 374.92 229.922C374.92 280.673 333.631 321.962 282.88 321.962Z" fill="#F37C7C"/>
<path fill-rule="evenodd" clip-rule="evenodd" d="M282.88 307.922C239.87 307.922 204.88 272.932 204.88 229.922C204.88 186.913 239.87 151.922 282.88 151.922C325.89 151.922 360.88 186.913 360.88 229.922C360.88 272.932 325.89 307.922 282.88 307.922Z" fill="#FFFFFE"/>
<path d="M282.88 293.882C247.612 293.882 218.92 265.189 218.92 229.922C218.92 194.654 247.612 165.962 282.88 165.962C318.148 165.962 346.84 194.654 346.84 229.922C346.84 265.189 318.148 293.882 282.88 293.882Z" fill="#F37C7C"/>
<path fill-rule="evenodd" clip-rule="evenodd" d="M282.88 279.842C255.355 279.842 232.96 257.448 232.96 229.922C232.96 202.396 255.355 180.002 282.88 180.002C310.406 180.002 332.8 202.396 332.8 229.922C332.8 257.448 310.406 279.842 282.88 279.842Z" fill="#FFFFFE"/>
<path d="M321.1 229.92C321.1 250.997 303.955 268.14 282.88 268.14C281.25 268.14 279.65 268.039 278.075 267.844C259.262 265.465 244.66 249.366 244.66 229.92C244.66 208.845 261.805 191.7 282.88 191.7C298.566 191.7 312.075 201.201 317.949 214.749C319.976 219.398 321.1 224.53 321.1 229.92Z" fill="#F37C7C"/>
<path fill-rule="evenodd" clip-rule="evenodd" d="M282.88 252.54C281.918 252.54 280.946 252.48 279.992 252.362C268.76 250.942 260.26 241.292 260.26 229.92C260.26 217.447 270.408 207.3 282.88 207.3C291.893 207.3 300.04 212.66 303.636 220.954C304.878 223.801 305.5 226.807 305.5 229.92C305.5 242.392 295.352 252.54 282.88 252.54Z" fill="#FFFFFE"/>
<path fill-rule="evenodd" clip-rule="evenodd" d="M282.88 236.94C282.558 236.94 282.229 236.92 281.905 236.88C278.477 236.446 275.86 233.452 275.86 229.92C275.86 226.049 279.009 222.9 282.88 222.9C283.547 222.9 284.198 222.995 284.82 223.175L283.025 227.772L282.49 227.554L282.806 228.332L282.49 229.142L283.041 228.908L286.007 236.205C285.066 236.675 284.003 236.94 282.88 236.94ZM289.871 230.556L284.403 228.332L288.944 226.409C289.084 226.65 289.21 226.9 289.324 227.16C289.716 228.06 289.9 228.952 289.9 229.92C289.9 230.135 289.891 230.347 289.871 230.556Z" fill="#D2D2CC"/>
<path fill-rule="evenodd" clip-rule="evenodd" d="M319.875 68.9775C319.875 89.6537 303.114 106.416 282.438 106.416C261.762 106.416 244.999 89.6537 244.999 68.9775C244.999 48.3012 261.762 31.5398 282.438 31.5398C303.114 31.5398 319.875 48.3012 319.875 68.9775Z" fill="#F8FAFB"/>
<path d="M283.002 91.7405L292.907 89.2391C298.561 84.5444 302.162 77.4631 302.162 69.54C302.162 57.3189 293.596 47.0985 282.141 44.5544C268.731 45.0067 257.999 56.02 257.999 69.5399C257.999 76.4844 260.831 82.767 265.403 87.2973L283.002 91.7405Z" fill="#CBE2FF"/>
<path d="M301.643 69.5398C301.643 77.7346 297.7 85.0077 291.607 89.567L300.595 87.2974C305.167 82.7671 307.999 76.4845 307.999 69.5398C307.999 55.7327 296.806 44.5398 282.999 44.5398C281.923 44.5398 280.862 44.608 279.821 44.74C292.128 46.3013 301.643 56.8093 301.643 69.5398Z" fill="#BED8FB"/>
<path d="M289.212 54.0077C289.212 52.7309 288.177 51.6958 286.9 51.6958H278.933C275.995 51.6958 273.613 54.078 273.613 57.0166V62.9241H292.383V57.1004C292.383 55.8235 291.348 54.7885 290.071 54.7885H289.993C289.562 54.7885 289.212 54.439 289.212 54.0077Z" fill="#365E7D"/>
<path d="M290.071 54.7886H289.993C289.562 54.7886 289.212 54.439 289.212 54.0077C289.212 52.7309 288.177 51.6958 286.9 51.6958H286.027V62.9241H292.383V57.1004C292.383 55.8237 291.348 54.7886 290.071 54.7886Z" fill="#2B4D66"/>
<path d="M299.507 80.9027C298.896 80.299 298.14 79.8321 297.282 79.5604L290.457 77.3995L283.001 77.1375L275.542 77.3995L268.716 79.5604C266.407 80.2915 264.838 82.4342 264.838 84.8562V86.7208C269.212 91.3427 275.332 94.2959 282.141 94.5255C289.771 92.8309 296.119 87.731 299.507 80.9027Z" fill="#4A80AA"/>
<path d="M301.16 86.7207V84.856C301.16 83.1435 300.375 81.5713 299.099 80.5383C295.475 87.9237 288.316 93.2598 279.827 94.3388C280.852 94.4686 281.895 94.5378 282.955 94.5397C283.972 94.5381 284.977 94.4792 285.965 94.3657C291.925 93.6614 297.243 90.8604 301.16 86.7207Z" fill="#407093"/>
<path d="M283.565 94.1656C285.078 91.1625 289.017 82.6356 287.893 77.3092L283.001 75.405L278.104 77.3093C276.946 82.8 281.167 91.6918 282.565 94.4275C282.901 94.3468 283.234 94.2594 283.565 94.1656Z" fill="#E4F6FF"/>
<path d="M286.143 91.7849L284.16 83.9805H281.839L279.86 91.7636L282.307 94.4879C282.928 94.3456 283.541 94.1807 284.144 93.994L286.143 91.7849Z" fill="#E28086"/>
<path d="M282.345 94.5305C282.548 94.5357 282.751 94.5394 282.955 94.5397C283.19 94.5394 283.425 94.5353 283.66 94.5287L284.92 93.1362C283.928 93.4843 282.908 93.7716 281.863 93.9936L282.345 94.5305Z" fill="#DD636E"/>
<path d="M287.176 76.589V72.188H278.819V76.589C278.819 78.8968 282.998 81.4177 282.998 81.4177C282.998 81.4177 287.176 78.8968 287.176 76.589Z" fill="#FFDDCE"/>
<path d="M292.383 62.1491H290.785C289.897 62.1491 289.177 61.4288 289.177 60.5404V59.66C289.177 58.5027 288.044 57.6844 286.946 58.0476C284.383 58.8947 281.616 58.8949 279.053 58.0482L279.05 58.0472C277.951 57.6842 276.819 58.5025 276.819 59.6597V60.5405C276.819 61.4289 276.098 62.1492 275.21 62.1492H273.613V64.7798C273.613 65.452 274.157 65.997 274.83 65.997C275.042 65.997 275.214 66.1631 275.228 66.3748C275.484 70.444 278.864 73.6653 282.998 73.6653C287.132 73.6653 290.511 70.444 290.768 66.3748C290.781 66.1632 290.954 65.997 291.166 65.997C291.838 65.997 292.383 65.4521 292.383 64.7798V62.1491H292.383Z" fill="#FFDDCE"/>
<path d="M290.785 62.149C289.897 62.149 289.177 61.4288 289.177 60.5403V59.6599C289.177 58.5026 288.044 57.6843 286.946 58.0475C286.642 58.1478 286.335 58.2353 286.027 58.3119V67.0006C285.984 69.8275 284.435 72.2879 282.147 73.6175C282.427 73.6479 282.71 73.665 282.998 73.665C287.131 73.665 290.511 70.4437 290.768 66.3746C290.781 66.163 290.954 65.9967 291.166 65.9967C291.838 65.9967 292.383 65.4518 292.383 64.7796V62.1489H290.785V62.149Z" fill="#FFCBBE"/>
<path d="M278.819 75.405L275.542 78.0678L278.978 82.3171C279.397 82.7242 280.055 82.7492 280.502 82.3751L283.087 80.2163L278.819 75.405Z" fill="#F4FBFF"/>
<path d="M287.178 75.405L283.087 80.2163L285.516 82.2932C285.961 82.6737 286.622 82.6545 287.044 82.249L290.457 78.0678L287.178 75.405Z" fill="#F4FBFF"/>
<path d="M278.819 75.405L274.009 77.7682C273.643 77.9481 273.496 78.3936 273.683 78.7562L274.625 80.5833C274.869 81.0568 274.779 81.6337 274.402 82.0101C274.208 82.2038 273.998 82.4135 273.816 82.5954C273.49 82.9208 273.373 83.4015 273.516 83.8392C274.654 87.3077 280.13 92.6115 282.202 94.5304C282.342 94.5341 282.481 94.5367 282.621 94.5382C281.118 91.6151 275.793 80.5094 278.819 75.405V75.405Z" fill="#365E7D"/>
<path d="M291.595 82.01C291.218 81.6336 291.128 81.0567 291.372 80.5833L292.314 78.7561C292.501 78.3935 292.354 77.948 291.988 77.7681L287.178 75.405C290.203 80.5081 284.881 91.609 283.377 94.5359C283.518 94.5334 283.659 94.5299 283.8 94.5252C285.877 92.6019 291.344 87.3045 292.481 83.8393C292.624 83.4016 292.507 82.9208 292.181 82.5955C291.999 82.4135 291.789 82.2037 291.595 82.01Z" fill="#365E7D"/>
<path d="M283.087 80.2163L280.542 82.3417L281.839 83.9805H284.16L285.456 82.245L283.087 80.2163Z" fill="#DD636E"/>
<path fill-rule="evenodd" clip-rule="evenodd" d="M167.875 166.977C167.875 187.653 151.113 204.415 130.438 204.415C109.762 204.415 92.9993 187.653 92.9993 166.977C92.9993 146.301 109.762 129.54 130.438 129.54C151.114 129.54 167.875 146.301 167.875 166.977Z" fill="#F8FAFB"/>
<path d="M126.013 145H111.284C108.918 145 107 146.918 107 149.284V157.66C107 160.026 108.918 161.943 111.284 161.943H114.983L117.542 164.502C118.153 165.113 119.144 165.113 119.755 164.502L122.314 161.943H126.013C128.379 161.943 130.297 160.026 130.297 157.66V149.284C130.297 146.918 128.379 145 126.013 145V145Z" fill="#F37C7C"/>
<path d="M112.558 158.36V149.286C112.558 147.354 113.648 145.699 115.197 145H111.284C108.918 145 107 146.918 107 149.284V157.66C107 160.026 108.918 161.943 111.284 161.943H114.12C113.166 161.092 112.558 159.803 112.558 158.36Z" fill="#EE6161"/>
<path d="M119.38 158.634L123.347 154.667C124.493 153.521 124.493 151.664 123.347 150.519C122.202 149.374 120.345 149.374 119.2 150.519L118.701 151.018L118.096 150.437C116.945 149.331 115.12 149.349 113.99 150.478L113.949 150.519C112.804 151.664 112.804 153.521 113.949 154.667L117.917 158.634C118.321 159.038 118.976 159.038 119.38 158.634Z" fill="#F3F0F3"/>
<path d="M147.468 187.18H120.016L121.9 185.295H147.468V187.18Z" fill="#C5C9F7"/>
<rect x="137.04" y="180.931" width="10.114" height="1.88461" fill="#C5C9F7"/>
<path d="M152.195 160.654L129.638 183.211L120 187.195L123.984 177.557L146.541 155L152.195 160.654Z" fill="#36CC8F"/>
<path d="M152.195 160.654L129.638 183.211L120 187.195L149.368 157.827L152.195 160.654Z" fill="#00BA64"/>
<path d="M152.195 160.655L147.375 165.475L141.721 159.82L146.541 155L152.195 160.655Z" fill="#FFA920"/>
<path d="M152.195 160.655L147.375 165.475L144.548 162.648L149.368 157.828L152.195 160.655Z" fill="#FF8800"/>
<path d="M129.638 183.211L120 187.195L123.984 177.557L129.638 183.211Z" fill="#FFD9A7"/>
<path d="M147.977 164.872L146.644 166.204L140.99 160.55L142.323 159.217L147.977 164.872Z" fill="#EFE6DE"/>
<path d="M145.134 167.715L143.802 169.047L138.148 163.393L139.48 162.061L145.134 167.715Z" fill="#EFE6DE"/>
<path d="M126.811 180.384L129.638 183.211L120 187.195L126.811 180.384Z" fill="#FFC273"/>
<path d="M147.977 164.872L146.644 166.204L143.817 163.378L145.15 162.045L147.977 164.872Z" fill="#DECCBC"/>
<path d="M142.307 164.888L145.134 167.715L143.802 169.047L140.975 166.221L142.307 164.888Z" fill="#DECCBC"/>
<path d="M121.041 184.676L120 187.195L122.519 186.154L121.041 184.676Z" fill="#36CC8F"/>
<path d="M121.78 185.415L120 187.195L122.519 186.154L121.78 185.415Z" fill="#00BA64"/>
<path d="M121.041 184.676L120 187.195L122.519 186.154L121.041 184.676Z" fill="#00459D"/>
<path d="M121.78 185.415L120 187.195L122.519 186.154L121.78 185.415Z" fill="#002D6B"/>
<path fill-rule="evenodd" clip-rule="evenodd" d="M197.875 317.977C197.875 338.653 181.114 355.415 160.438 355.415C139.761 355.415 122.999 338.653 122.999 317.977C122.999 297.301 139.761 280.54 160.438 280.54C181.114 280.54 197.875 297.301 197.875 317.977Z" fill="#F8FAFB"/>
<path d="M177.651 305.701H141.002C141.002 305.701 141.033 327.53 141.002 328.738C141.002 328.749 141.002 328.759 141.002 328.769C141.034 329.932 141.51 331.019 142.343 331.832C143.178 332.646 144.28 333.095 145.447 333.095H164.805C164.96 333.095 165.11 333.033 165.22 332.923L178.067 320.076C178.177 319.966 178.239 319.817 178.239 319.661V306.288C178.239 305.963 177.976 305.701 177.651 305.701Z" fill="#EBF0F3"/>
<path d="M177.652 305.701H175.695V322.448L178.067 320.076C178.177 319.966 178.239 319.817 178.239 319.661V306.288C178.239 305.963 177.976 305.701 177.652 305.701Z" fill="#C6C5CA"/>
<rect x="145.999" y="309" width="24" height="10" rx="1" fill="#36CC8F"/>
<rect x="146" y="323" width="6" height="6" rx="1" fill="#36CC8F"/>
<path d="M170.006 300.123L169.999 300.13L171.301 301.427L170.006 300.123Z" fill="#475D63"/>
<path fill-rule="evenodd" clip-rule="evenodd" d="M179.997 316.485C180.165 316.317 180.417 316.267 180.637 316.358C180.856 316.449 180.999 316.663 180.999 316.9V336.889C180.999 337.213 180.736 337.476 180.412 337.476H160.424C160.186 337.476 159.972 337.333 159.881 337.113C159.79 336.894 159.84 336.641 160.008 336.474L179.997 316.485ZM176.168 326.311L169.752 332.727H176.168V326.311Z" fill="#FFCA10"/>
<path d="M180.637 316.358C180.417 316.267 180.165 316.317 179.997 316.485L178.455 318.027V337.476H180.412C180.736 337.476 180.999 337.213 180.999 336.889V316.9C180.999 316.663 180.856 316.449 180.637 316.358Z" fill="#FFA304"/>
<path d="M180.999 323.497H178.742C178.418 323.497 178.155 323.76 178.155 324.084C178.155 324.408 178.418 324.671 178.742 324.671H180.999V323.497Z" fill="#C96E14"/>
<path d="M180.999 326.44H178.742C178.418 326.44 178.155 326.703 178.155 327.028C178.155 327.352 178.418 327.615 178.742 327.615H180.999V326.44Z" fill="#C96E14"/>
<path d="M180.999 329.384H178.742C178.418 329.384 178.155 329.647 178.155 329.971C178.155 330.295 178.418 330.558 178.742 330.558H180.999V329.384Z" fill="#C96E14"/>
<path d="M180.999 332.327H178.742C178.418 332.327 178.155 332.59 178.155 332.914C178.155 333.239 178.418 333.501 178.742 333.501H180.999V332.327Z" fill="#C96E14"/>
<path fill-rule="evenodd" clip-rule="evenodd" d="M445.872 317.977C445.872 338.653 429.11 355.415 408.44 355.415C387.762 355.415 371 338.653 371 317.977C371 297.301 387.762 280.54 408.44 280.54C429.11 280.539 445.872 297.301 445.872 317.977Z" fill="#F8FAFB"/>
<path d="M391.862 323.458V301.733C391.862 301.085 392.387 300.561 393.034 300.561H424.908C425.555 300.561 426.079 301.085 426.079 301.733V323.458H391.862Z" fill="#3A556A"/>
<path d="M387 332.454L391.862 323.458H426.079L430.942 332.454H387Z" fill="#64798A"/>
<rect x="393.253" y="301.951" width="31.4365" height="20.1195" fill="#EBF0F3"/>
<path d="M387 332.455H430.942V334.281C430.942 334.928 430.417 335.453 429.77 335.453H388.172C387.525 335.452 387 334.928 387 334.281V332.455Z" fill="#3A556A"/>
<path d="M413.658 330.364H404.284L405.849 327.491H412.093L413.658 330.364Z" fill="#E1E6E9"/>
<path d="M398.837 304.098L395.956 306.979C395.727 307.208 395.727 307.578 395.956 307.807C396.071 307.922 396.221 307.979 396.371 307.979C396.521 307.979 396.67 307.922 396.785 307.807L399.666 304.926C399.895 304.698 399.895 304.327 399.666 304.098C399.437 303.869 399.066 303.869 398.837 304.098Z" fill="#D5D6DB"/>
<path d="M398.029 309.355L396.209 311.174C395.981 311.403 395.981 311.774 396.209 312.002C396.324 312.117 396.474 312.174 396.624 312.174C396.774 312.174 396.923 312.117 397.038 312.002L398.857 310.183C399.086 309.954 399.086 309.583 398.857 309.355C398.628 309.126 398.258 309.126 398.029 309.355Z" fill="#D5D6DB"/>
<path d="M403.912 304.3C403.683 304.071 403.312 304.071 403.083 304.3L400.018 307.365C399.789 307.594 399.789 307.965 400.018 308.194C400.133 308.308 400.282 308.365 400.432 308.365C400.582 308.365 400.732 308.308 400.847 308.194L403.912 305.129C404.14 304.9 404.14 304.529 403.912 304.3Z" fill="#D5D6DB"/>
<path fill-rule="evenodd" clip-rule="evenodd" d="M470.871 159.977C470.871 180.653 454.109 197.415 433.439 197.415C412.761 197.415 395.999 180.653 395.999 159.977C395.999 139.301 412.761 122.54 433.439 122.54C454.109 122.539 470.871 139.301 470.871 159.977Z" fill="#F8FAFB"/>
<path fill-rule="evenodd" clip-rule="evenodd" d="M292.713 220.513L290.775 218.496L343.136 163.971L345.073 165.989L292.713 220.513Z" fill="#2D2E2C"/>
<path fill-rule="evenodd" clip-rule="evenodd" d="M301.839 220.949L293.659 217.511L290.358 208.993L282.49 229.142L301.839 220.949Z" fill="#2D2E2C"/>
<path fill-rule="evenodd" clip-rule="evenodd" d="M353.439 166.743L352.922 166.704L343.972 166.744L357.419 152.742L366.962 152.66L353.439 166.743Z" fill="#2D2E2C"/>
<path fill-rule="evenodd" clip-rule="evenodd" d="M356.115 141.365L355.876 151.136L342.43 165.137C342.867 161.948 342.907 158.679 342.631 155.406L356.115 141.365Z" fill="#2D2E2C"/>
<path fill-rule="evenodd" clip-rule="evenodd" d="M351.536 298.806L347.817 295.088C348.555 294.352 349.278 293.608 349.99 292.848L353.741 296.599L351.536 298.806Z" fill="#D2D2CC"/>
<path fill-rule="evenodd" clip-rule="evenodd" d="M347.817 295.088L337.894 285.165C338.63 284.431 339.354 283.681 340.061 282.92L349.99 292.848C349.277 293.608 348.555 294.352 347.817 295.088Z" fill="#C45340"/>
<path fill-rule="evenodd" clip-rule="evenodd" d="M337.894 285.164L327.971 275.241C328.708 274.508 329.428 273.755 330.129 272.987L340.061 282.92C339.354 283.681 338.631 284.431 337.894 285.164Z" fill="#D2D2CC"/>
<path fill-rule="evenodd" clip-rule="evenodd" d="M327.971 275.241L318.048 265.318C318.787 264.584 319.501 263.829 320.192 263.051L330.129 272.987C329.428 273.756 328.708 274.508 327.971 275.241Z" fill="#C45340"/>
<path fill-rule="evenodd" clip-rule="evenodd" d="M318.048 265.318L309.778 257.049C310.517 256.315 311.226 255.553 311.904 254.762L320.192 263.051C319.501 263.829 318.787 264.584 318.048 265.318Z" fill="#D2D2CC"/>
<path fill-rule="evenodd" clip-rule="evenodd" d="M309.778 257.049L298.751 246.022C299.494 245.29 300.186 244.508 300.822 243.68L311.904 254.762C311.226 255.553 310.517 256.315 309.778 257.049Z" fill="#C45340"/>
<path fill-rule="evenodd" clip-rule="evenodd" d="M291.448 249.583L286.007 236.205C288.133 235.142 289.648 233.032 289.871 230.556L304.519 236.512L296.777 239.636L300.822 243.68C300.186 244.508 299.494 245.29 298.752 246.022L294.571 241.842L291.448 249.583Z" fill="#D2D2CC"/>
<path fill-rule="evenodd" clip-rule="evenodd" d="M286.007 236.205L283.041 228.909L284.403 228.332L289.871 230.556C289.648 233.032 288.133 235.142 286.007 236.205ZM282.806 228.332L282.49 227.554L283.025 227.772L282.806 228.332Z" fill="#ADAEAA"/>
<path fill-rule="evenodd" clip-rule="evenodd" d="M283.041 228.908L282.806 228.332L283.025 227.772L284.403 228.332L283.041 228.908Z" fill="#F4F6F8"/>
<path fill-rule="evenodd" clip-rule="evenodd" d="M83.0634 202H69.0468C68.4672 202 68 202.468 68 203.045V211.215C68 211.793 68.4672 212.262 69.0468 212.262H70.099L71.478 215.914L72.8571 212.262H83.0634C83.6429 212.262 84.1101 211.793 84.1101 211.215V203.045C84.1101 202.468 83.6429 202 83.0634 202Z" fill="#F4F6F8"/>
<path fill-rule="evenodd" clip-rule="evenodd" d="M479.354 120.962H475.376V120.988L475.22 120.962H473.855C474.042 120.818 475.376 119.783 475.735 118.286C476.125 116.67 474.542 115.099 474.011 116.816C473.512 118.462 470.306 120.77 470.033 120.962H469.838C469.542 120.962 469.3 121.202 469.3 121.496V121.502C469.23 121.47 469.16 121.452 469.074 121.452H467.873C467.584 121.452 467.342 121.691 467.342 121.985V128.037C467.342 128.33 467.584 128.571 467.873 128.571H469.074C469.16 128.571 469.238 128.551 469.3 128.518C469.323 128.795 469.55 129.015 469.838 129.015H476.601C477.092 129.015 477.49 128.617 477.49 128.125V127.991C477.49 127.5 477.092 127.102 476.601 127.102H475.751V126.969H477.49C477.981 126.969 478.379 126.57 478.379 126.079V125.945C478.379 125.453 477.981 125.055 477.49 125.055H475.751V124.922H478.379C478.871 124.922 479.268 124.523 479.268 124.032V123.899C479.268 123.406 478.871 123.009 478.379 123.009H475.751V122.875H479.354C479.846 122.875 480.243 122.477 480.243 121.985V121.852C480.243 121.36 479.846 120.962 479.354 120.962Z" fill="#FFFFFE"/>
<path fill-rule="evenodd" clip-rule="evenodd" d="M283.66 9.96179C282.799 10.2707 282.213 10.9017 281.786 11.7488C281.736 11.6661 281.708 11.6232 281.683 11.5772C281.084 10.4797 280.175 9.84401 278.921 9.74261C277.672 9.64277 276.682 10.0905 276.059 11.2036C275.215 12.7113 275.463 14.1559 276.391 15.5333C276.882 16.2619 277.549 16.8266 278.209 17.3944C279.066 18.1307 279.933 18.8561 280.76 19.6237C281.144 19.9786 281.446 20.42 281.79 20.8288C282.024 20.5339 282.23 20.2016 282.506 19.9411C283.279 19.2079 284.081 18.5051 284.873 17.7899C285.478 17.2431 286.118 16.7306 286.679 16.141C287.625 15.1433 288.194 13.9538 287.97 12.5498C287.587 10.1162 285.644 9.25199 283.66 9.96179Z" fill="#FFFFFE"/>
<path fill-rule="evenodd" clip-rule="evenodd" d="M57.4202 31.2214C55.6527 31.2214 54.2214 32.6535 54.2214 34.4202C54.2214 36.1861 55.6527 37.6182 57.4202 37.6182C59.1861 37.6182 60.6182 36.1861 60.6182 34.4202C60.6182 32.6535 59.1861 31.2214 57.4202 31.2214Z" fill="#F4F6F8"/>
<path fill-rule="evenodd" clip-rule="evenodd" d="M57.4201 39.4184C54.6589 39.4184 52.4211 37.1798 52.4211 34.4201C52.4211 31.6597 54.6589 29.4211 57.4201 29.4211C60.1806 29.4211 62.4184 31.6597 62.4184 34.4201C62.4184 37.1798 60.1806 39.4184 57.4201 39.4184ZM64.8395 34.4201C64.8395 30.322 61.5183 27 57.4201 27C53.3212 27 50 30.322 50 34.4201C50 37.6556 52.0748 40.4004 54.9647 41.4152L57.4201 43.8691L59.874 41.4152C62.7631 40.4004 64.8395 37.6556 64.8395 34.4201Z" fill="#F4F6F8"/>
<path fill-rule="evenodd" clip-rule="evenodd" d="M543.078 375.047C542.5 372.884 543.78 370.661 545.948 370.081C548.109 369.502 550.332 370.785 550.909 372.948C551.494 375.111 550.207 377.334 548.046 377.915C545.878 378.493 543.663 377.211 543.078 375.047ZM555.246 382.598L550.893 377.417L550.753 377.291C551.814 376.078 552.266 374.377 551.821 372.704C551.104 370.039 548.366 368.457 545.698 369.172C543.039 369.886 541.455 372.625 542.173 375.291C542.883 377.958 545.62 379.54 548.288 378.826C548.787 378.692 549.247 378.488 549.661 378.227L549.754 378.375L554.107 383.558C554.356 383.857 554.801 383.897 555.105 383.646L555.16 383.598C555.456 383.347 555.495 382.9 555.246 382.598Z" fill="#F4F6F8"/>
<path fill-rule="evenodd" clip-rule="evenodd" d="M543.842 374.289C543.686 373.717 544.029 373.131 544.599 372.979C545.168 372.825 545.753 373.163 545.909 373.735C546.065 374.306 545.722 374.892 545.152 375.046C544.583 375.199 543.99 374.86 543.842 374.289Z" fill="#F4F6F8"/>
<path fill-rule="evenodd" clip-rule="evenodd" d="M381.722 93.6919H372.403L372.287 93.7192L371.382 90.9525C371.355 90.8706 371.284 90.8098 371.198 90.7957L369.282 90.4853C369.157 90.4634 369.035 90.5508 369.015 90.6772C368.994 90.8066 369.081 90.9236 369.207 90.9455L370.983 91.2333L374.097 100.753C374.128 100.849 374.219 100.913 374.319 100.913H374.947C374.695 101.068 374.525 101.348 374.525 101.664C374.525 102.152 374.919 102.545 375.405 102.545C375.892 102.545 376.285 102.152 376.285 101.664C376.285 101.348 376.116 101.068 375.863 100.913H378.52C378.266 101.068 378.098 101.348 378.098 101.664C378.098 102.152 378.491 102.545 378.978 102.545C379.464 102.545 379.859 102.152 379.859 101.664C379.859 101.348 379.688 101.068 379.436 100.913H380.324C380.45 100.913 380.559 100.809 380.559 100.681C380.559 100.552 380.45 100.448 380.324 100.448H374.487L373.919 98.7104L373.957 98.7135H380.168C380.339 98.7135 380.52 98.5809 380.567 98.4179L381.94 93.989C381.995 93.8276 381.893 93.6919 381.722 93.6919Z" fill="#FFFFFE"/>
<path fill-rule="evenodd" clip-rule="evenodd" d="M338.453 108.437H336.327V106.311C336.327 106.037 336.105 105.814 335.831 105.814C335.555 105.814 335.333 106.037 335.333 106.311V108.437H333.207C332.933 108.437 332.711 108.66 332.711 108.932C332.711 109.208 332.933 109.43 333.207 109.43H335.333V111.557C335.333 111.832 335.555 112.054 335.831 112.054C336.105 112.054 336.327 111.832 336.327 111.557V109.43H338.453C338.729 109.43 338.951 109.208 338.951 108.932C338.951 108.66 338.729 108.437 338.453 108.437Z" fill="#FFFFFE"/>
<path fill-rule="evenodd" clip-rule="evenodd" d="M418.234 378.05H414.74V374.562C414.74 374.11 414.369 373.746 413.921 373.746C413.473 373.746 413.114 374.11 413.114 374.562V378.05H409.62C409.172 378.05 408.801 378.416 408.801 378.862C408.801 379.316 409.172 379.68 409.62 379.68H413.114V383.17C413.114 383.621 413.473 383.986 413.921 383.986C414.369 383.986 414.74 383.621 414.74 383.17V379.68H418.234C418.682 379.68 419.041 379.316 419.041 378.862C419.041 378.416 418.682 378.05 418.234 378.05Z" fill="#F4F6F8"/>
<path fill-rule="evenodd" clip-rule="evenodd" d="M49.4234 373.305H45.9341V369.817C45.9341 369.365 45.5693 369 45.12 369C44.6669 369 44.3034 369.365 44.3034 369.817V373.305H40.8141C40.3648 373.305 40 373.671 40 374.116C40 374.571 40.3648 374.934 40.8141 374.934H44.3034V378.425C44.3034 378.875 44.6669 379.24 45.12 379.24C45.5693 379.24 45.9341 378.875 45.9341 378.425V374.934H49.4234C49.8752 374.934 50.24 374.571 50.24 374.116C50.24 373.671 49.8752 373.305 49.4234 373.305Z" fill="#F4F6F8"/>
<path fill-rule="evenodd" clip-rule="evenodd" d="M215.368 125.523H211.878V122.036C211.878 121.584 211.514 121.219 211.063 121.219C210.611 121.219 210.248 121.584 210.248 122.036V125.523H206.758C206.308 125.523 205.943 125.89 205.943 126.337C205.943 126.79 206.308 127.154 206.758 127.154H210.248V130.643C210.248 131.095 210.611 131.459 211.063 131.459C211.514 131.459 211.878 131.095 211.878 130.643V127.154H215.368C215.818 127.154 216.183 126.79 216.183 126.337C216.183 125.89 215.818 125.523 215.368 125.523Z" fill="#F4F6F8"/>
<path fill-rule="evenodd" clip-rule="evenodd" d="M123.425 85.3034H119.935V81.8166C119.935 81.3648 119.571 81 119.12 81C118.668 81 118.305 81.3648 118.305 81.8166V85.3034H114.815C114.365 85.3034 114 85.6707 114 86.1174C114 86.5706 114.365 86.9341 114.815 86.9341H118.305V90.4234C118.305 90.8752 118.668 91.24 119.12 91.24C119.571 91.24 119.935 90.8752 119.935 90.4234V86.9341H123.425C123.875 86.9341 124.24 86.5706 124.24 86.1174C124.24 85.6707 123.875 85.3034 123.425 85.3034Z" fill="#F4F6F8"/>
<path fill-rule="evenodd" clip-rule="evenodd" d="M386.974 34.2635H383.479V30.7762C383.479 30.3243 383.108 29.9595 382.66 29.9595C382.212 29.9595 381.848 30.3243 381.848 30.7762V34.2635H378.359C377.908 34.2635 377.543 34.6309 377.543 35.0777C377.543 35.5308 377.908 35.8944 378.359 35.8944H381.848V39.3842C381.848 39.8361 382.212 40.201 382.66 40.201C383.108 40.201 383.479 39.8361 383.479 39.3842V35.8944H386.974C387.422 35.8944 387.781 35.5308 387.781 35.0777C387.781 34.6309 387.422 34.2635 386.974 34.2635Z" fill="#F4F6F8"/>
<path fill-rule="evenodd" clip-rule="evenodd" d="M144.82 107.462C144.82 108.324 145.519 109.022 146.38 109.022C147.241 109.022 147.94 108.324 147.94 107.462C147.94 106.601 147.241 105.902 146.38 105.902C145.519 105.902 144.82 106.601 144.82 107.462Z" fill="#FFFFFE"/>
<path fill-rule="evenodd" clip-rule="evenodd" d="M452.14 92.6418C452.14 93.5037 452.842 94.2018 453.7 94.2018C454.558 94.2018 455.26 93.5037 455.26 92.6418C455.26 91.7807 454.558 91.0818 453.7 91.0818C452.842 91.0818 452.14 91.7807 452.14 92.6418Z" fill="#FFFFFE"/>
<path fill-rule="evenodd" clip-rule="evenodd" d="M405.34 221.342C405.34 222.204 406.042 222.902 406.9 222.902C407.758 222.902 408.46 222.204 408.46 221.342C408.46 220.481 407.758 219.782 406.9 219.782C406.042 219.782 405.34 220.481 405.34 221.342Z" fill="#FFFFFE"/>
<path fill-rule="evenodd" clip-rule="evenodd" d="M160.42 213.542C160.42 214.404 161.119 215.102 161.98 215.102C162.841 215.102 163.54 214.404 163.54 213.542C163.54 212.681 162.841 211.982 161.98 211.982C161.119 211.982 160.42 212.681 160.42 213.542Z" fill="#FFFFFE"/>
<path fill-rule="evenodd" clip-rule="evenodd" d="M225.16 77.4819C225.16 79.4488 226.755 81.0419 228.72 81.0419C230.685 81.0419 232.28 79.4488 232.28 77.4819C232.28 75.5168 230.685 73.9219 228.72 73.9219C226.755 73.9219 225.16 75.5168 225.16 77.4819Z" fill="white"/>
<path fill-rule="evenodd" clip-rule="evenodd" d="M511.36 21.5483C506.501 21.5483 502.548 25.5014 502.548 30.36C502.548 35.2186 506.501 39.1717 511.36 39.1717C516.218 39.1717 520.171 35.2186 520.171 30.36C520.171 25.5014 516.218 21.5483 511.36 21.5483ZM511.36 39.72C506.2 39.72 502 35.522 502 30.36C502 25.198 506.2 21 511.36 21C516.521 21 520.72 25.198 520.72 30.36C520.72 35.522 516.521 39.72 511.36 39.72Z" fill="#F4F6F8"/>
<path fill-rule="evenodd" clip-rule="evenodd" d="M517.744 30.36C517.744 33.8864 514.885 36.7428 511.36 36.7428C507.836 36.7428 504.976 33.8864 504.976 30.36C504.976 26.8337 507.836 23.9773 511.36 23.9773C514.885 23.9773 517.744 26.8337 517.744 30.36Z" fill="#F4F6F8"/>
<path fill-rule="evenodd" clip-rule="evenodd" d="M508.36 223.548C503.501 223.548 499.546 227.501 499.546 232.36C499.546 237.219 503.501 241.172 508.36 241.172C513.219 241.172 517.174 237.219 517.174 232.36C517.174 227.501 513.219 223.548 508.36 223.548ZM508.36 241.72C503.196 241.72 499 237.522 499 232.36C499 227.198 503.196 223 508.36 223C513.524 223 517.72 227.198 517.72 232.36C517.72 237.522 513.524 241.72 508.36 241.72Z" fill="#F4F6F8"/>
<path fill-rule="evenodd" clip-rule="evenodd" d="M514.74 232.36C514.74 235.886 511.886 238.743 508.36 238.743C504.834 238.743 501.98 235.886 501.98 232.36C501.98 228.834 504.834 225.977 508.36 225.977C511.886 225.977 514.74 228.834 514.74 232.36Z" fill="#F4F6F8"/>
<path fill-rule="evenodd" clip-rule="evenodd" d="M9.36 232.03C4.50216 232.03 0.54834 235.983 0.54834 240.842C0.54834 245.7 4.50216 249.653 9.36 249.653C14.2186 249.653 18.1717 245.7 18.1717 240.842C18.1717 235.983 14.2186 232.03 9.36 232.03ZM9.36 250.202C4.2003 250.202 0 246.004 0 240.842C0 235.68 4.2003 231.482 9.36 231.482C14.5213 231.482 18.72 235.68 18.72 240.842C18.72 246.004 14.5213 250.202 9.36 250.202Z" fill="#F4F6F8"/>
<path fill-rule="evenodd" clip-rule="evenodd" d="M15.7452 240.842C15.7452 244.368 12.8857 247.224 9.36008 247.224C5.83604 247.224 2.97656 244.368 2.97656 240.842C2.97656 237.315 5.83604 234.459 9.36008 234.459C12.8857 234.459 15.7452 237.315 15.7452 240.842Z" fill="#F4F6F8"/>
<path d="M224.997 3.5C226.007 3.5 226.857 3.84 227.547 4.52C228.237 5.2 228.582 6.035 228.582 7.025C228.582 8.015 228.237 8.85 227.547 9.53C226.857 10.21 226.007 10.55 224.997 10.55H223.152V14H221.082V3.5H224.997ZM224.997 8.615C225.437 8.615 225.802 8.465 226.092 8.165C226.382 7.855 226.527 7.475 226.527 7.025C226.527 6.565 226.382 6.185 226.092 5.885C225.802 5.585 225.437 5.435 224.997 5.435H223.152V8.615H224.997ZM231.614 7.79C231.794 7.31 232.089 6.95 232.499 6.71C232.919 6.47 233.384 6.35 233.894 6.35V8.51C233.304 8.44 232.774 8.56 232.304 8.87C231.844 9.18 231.614 9.695 231.614 10.415V14H229.679V6.5H231.614V7.79ZM236.382 11.045C236.642 11.985 237.347 12.455 238.497 12.455C239.237 12.455 239.797 12.205 240.177 11.705L241.737 12.605C240.997 13.675 239.907 14.21 238.467 14.21C237.227 14.21 236.232 13.835 235.482 13.085C234.732 12.335 234.357 11.39 234.357 10.25C234.357 9.12 234.727 8.18 235.467 7.43C236.207 6.67 237.157 6.29 238.317 6.29C239.417 6.29 240.322 6.67 241.032 7.43C241.752 8.19 242.112 9.13 242.112 10.25C242.112 10.5 242.087 10.765 242.037 11.045H236.382ZM236.352 9.545H240.177C240.067 9.035 239.837 8.655 239.487 8.405C239.147 8.155 238.757 8.03 238.317 8.03C237.797 8.03 237.367 8.165 237.027 8.435C236.687 8.695 236.462 9.065 236.352 9.545ZM251.758 6.29C252.618 6.29 253.303 6.57 253.813 7.13C254.333 7.69 254.593 8.44 254.593 9.38V14H252.658V9.515C252.658 9.065 252.548 8.715 252.328 8.465C252.108 8.215 251.798 8.09 251.398 8.09C250.958 8.09 250.613 8.235 250.363 8.525C250.123 8.815 250.003 9.235 250.003 9.785V14H248.068V9.515C248.068 9.065 247.958 8.715 247.738 8.465C247.518 8.215 247.208 8.09 246.808 8.09C246.378 8.09 246.033 8.235 245.773 8.525C245.523 8.815 245.398 9.235 245.398 9.785V14H243.463V6.5H245.398V7.295C245.848 6.625 246.543 6.29 247.483 6.29C248.403 6.29 249.083 6.65 249.523 7.37C250.023 6.65 250.768 6.29 251.758 6.29ZM257.197 5.6C256.877 5.6 256.597 5.485 256.357 5.255C256.127 5.015 256.012 4.735 256.012 4.415C256.012 4.095 256.127 3.815 256.357 3.575C256.597 3.335 256.877 3.215 257.197 3.215C257.527 3.215 257.807 3.335 258.037 3.575C258.277 3.815 258.397 4.095 258.397 4.415C258.397 4.735 258.277 5.015 258.037 5.255C257.807 5.485 257.527 5.6 257.197 5.6ZM256.237 14V6.5H258.172V14H256.237ZM264.893 6.5H266.828V14H264.893V13.16C264.423 13.86 263.678 14.21 262.658 14.21C261.838 14.21 261.158 13.935 260.618 13.385C260.088 12.835 259.823 12.075 259.823 11.105V6.5H261.758V10.865C261.758 11.365 261.893 11.75 262.163 12.02C262.433 12.28 262.793 12.41 263.243 12.41C263.743 12.41 264.143 12.255 264.443 11.945C264.743 11.635 264.893 11.17 264.893 10.55V6.5ZM276.895 6.29C277.755 6.29 278.44 6.57 278.95 7.13C279.47 7.69 279.73 8.44 279.73 9.38V14H277.795V9.515C277.795 9.065 277.685 8.715 277.465 8.465C277.245 8.215 276.935 8.09 276.535 8.09C276.095 8.09 275.75 8.235 275.5 8.525C275.26 8.815 275.14 9.235 275.14 9.785V14H273.205V9.515C273.205 9.065 273.095 8.715 272.875 8.465C272.655 8.215 272.345 8.09 271.945 8.09C271.515 8.09 271.17 8.235 270.91 8.525C270.66 8.815 270.535 9.235 270.535 9.785V14H268.6V6.5H270.535V7.295C270.985 6.625 271.68 6.29 272.62 6.29C273.54 6.29 274.22 6.65 274.66 7.37C275.16 6.65 275.905 6.29 276.895 6.29ZM291.963 14L291.333 12.11H287.148L286.518 14H284.283L287.958 3.5H290.523L294.213 14H291.963ZM287.808 10.175H290.688L289.248 5.885L287.808 10.175ZM300.02 6.5H301.955V14H300.02V13.16C299.55 13.86 298.805 14.21 297.785 14.21C296.965 14.21 296.285 13.935 295.745 13.385C295.215 12.835 294.95 12.075 294.95 11.105V6.5H296.885V10.865C296.885 11.365 297.02 11.75 297.29 12.02C297.56 12.28 297.92 12.41 298.37 12.41C298.87 12.41 299.27 12.255 299.57 11.945C299.87 11.635 300.02 11.17 300.02 10.55V6.5ZM309.412 3.5H311.347V14H309.412V13.115C308.842 13.845 308.032 14.21 306.982 14.21C305.972 14.21 305.107 13.83 304.387 13.07C303.677 12.3 303.322 11.36 303.322 10.25C303.322 9.14 303.677 8.205 304.387 7.445C305.107 6.675 305.972 6.29 306.982 6.29C308.032 6.29 308.842 6.655 309.412 7.385V3.5ZM305.842 11.78C306.242 12.17 306.742 12.365 307.342 12.365C307.942 12.365 308.437 12.17 308.827 11.78C309.217 11.38 309.412 10.87 309.412 10.25C309.412 9.63 309.217 9.125 308.827 8.735C308.437 8.335 307.942 8.135 307.342 8.135C306.742 8.135 306.242 8.335 305.842 8.735C305.452 9.125 305.257 9.63 305.257 10.25C305.257 10.87 305.452 11.38 305.842 11.78ZM314.076 5.6C313.756 5.6 313.476 5.485 313.236 5.255C313.006 5.015 312.891 4.735 312.891 4.415C312.891 4.095 313.006 3.815 313.236 3.575C313.476 3.335 313.756 3.215 314.076 3.215C314.406 3.215 314.686 3.335 314.916 3.575C315.156 3.815 315.276 4.095 315.276 4.415C315.276 4.735 315.156 5.015 314.916 5.255C314.686 5.485 314.406 5.6 314.076 5.6ZM313.116 14V6.5H315.051V14H313.116ZM318.458 11.045C318.718 11.985 319.423 12.455 320.573 12.455C321.313 12.455 321.873 12.205 322.253 11.705L323.813 12.605C323.073 13.675 321.983 14.21 320.543 14.21C319.303 14.21 318.308 13.835 317.558 13.085C316.808 12.335 316.432 11.39 316.432 10.25C316.432 9.12 316.803 8.18 317.543 7.43C318.283 6.67 319.233 6.29 320.393 6.29C321.493 6.29 322.398 6.67 323.108 7.43C323.828 8.19 324.188 9.13 324.188 10.25C324.188 10.5 324.163 10.765 324.113 11.045H318.458ZM318.428 9.545H322.253C322.143 9.035 321.913 8.655 321.563 8.405C321.223 8.155 320.833 8.03 320.393 8.03C319.873 8.03 319.443 8.165 319.103 8.435C318.763 8.695 318.538 9.065 318.428 9.545ZM329.708 6.29C330.528 6.29 331.203 6.565 331.733 7.115C332.273 7.665 332.543 8.425 332.543 9.395V14H330.608V9.635C330.608 9.135 330.473 8.755 330.203 8.495C329.933 8.225 329.573 8.09 329.123 8.09C328.623 8.09 328.223 8.245 327.923 8.555C327.623 8.865 327.473 9.33 327.473 9.95V14H325.538V6.5H327.473V7.34C327.943 6.64 328.688 6.29 329.708 6.29ZM337.766 14.21C336.636 14.21 335.691 13.83 334.931 13.07C334.181 12.31 333.806 11.37 333.806 10.25C333.806 9.13 334.181 8.19 334.931 7.43C335.691 6.67 336.636 6.29 337.766 6.29C338.496 6.29 339.161 6.465 339.761 6.815C340.361 7.165 340.816 7.635 341.126 8.225L339.461 9.2C339.311 8.89 339.081 8.645 338.771 8.465C338.471 8.285 338.131 8.195 337.751 8.195C337.171 8.195 336.691 8.39 336.311 8.78C335.931 9.16 335.741 9.65 335.741 10.25C335.741 10.84 335.931 11.33 336.311 11.72C336.691 12.1 337.171 12.29 337.751 12.29C338.141 12.29 338.486 12.205 338.786 12.035C339.096 11.855 339.326 11.61 339.476 11.3L341.156 12.26C340.826 12.85 340.361 13.325 339.761 13.685C339.161 14.035 338.496 14.21 337.766 14.21ZM343.697 11.045C343.957 11.985 344.662 12.455 345.812 12.455C346.552 12.455 347.112 12.205 347.492 11.705L349.052 12.605C348.312 13.675 347.222 14.21 345.782 14.21C344.542 14.21 343.547 13.835 342.797 13.085C342.047 12.335 341.672 11.39 341.672 10.25C341.672 9.12 342.042 8.18 342.782 7.43C343.522 6.67 344.472 6.29 345.632 6.29C346.732 6.29 347.637 6.67 348.347 7.43C349.067 8.19 349.427 9.13 349.427 10.25C349.427 10.5 349.402 10.765 349.352 11.045H343.697ZM343.667 9.545H347.492C347.382 9.035 347.152 8.655 346.802 8.405C346.462 8.155 346.072 8.03 345.632 8.03C345.112 8.03 344.682 8.165 344.342 8.435C344.002 8.695 343.777 9.065 343.667 9.545Z" fill="#9AA0A9"/>
<path d="M499.649 150.635C498.589 151.685 497.299 152.21 495.779 152.21C494.259 152.21 492.969 151.685 491.909 150.635C490.859 149.575 490.334 148.28 490.334 146.75C490.334 145.22 490.859 143.93 491.909 142.88C492.969 141.82 494.259 141.29 495.779 141.29C497.299 141.29 498.589 141.82 499.649 142.88C500.709 143.93 501.239 145.22 501.239 146.75C501.239 148.28 500.709 149.575 499.649 150.635ZM493.364 149.225C494.014 149.865 494.819 150.185 495.779 150.185C496.739 150.185 497.544 149.865 498.194 149.225C498.844 148.575 499.169 147.75 499.169 146.75C499.169 145.75 498.844 144.925 498.194 144.275C497.544 143.625 496.739 143.3 495.779 143.3C494.819 143.3 494.014 143.625 493.364 144.275C492.714 144.925 492.389 145.75 492.389 146.75C492.389 147.75 492.714 148.575 493.364 149.225ZM506.774 144.29C507.594 144.29 508.269 144.565 508.799 145.115C509.339 145.665 509.609 146.425 509.609 147.395V152H507.674V147.635C507.674 147.135 507.539 146.755 507.269 146.495C506.999 146.225 506.639 146.09 506.189 146.09C505.689 146.09 505.289 146.245 504.989 146.555C504.689 146.865 504.539 147.33 504.539 147.95V152H502.604V144.5H504.539V145.34C505.009 144.64 505.754 144.29 506.774 144.29ZM511.261 152V141.05H513.196V152H511.261ZM515.927 143.6C515.607 143.6 515.327 143.485 515.087 143.255C514.857 143.015 514.742 142.735 514.742 142.415C514.742 142.095 514.857 141.815 515.087 141.575C515.327 141.335 515.607 141.215 515.927 141.215C516.257 141.215 516.537 141.335 516.767 141.575C517.007 141.815 517.127 142.095 517.127 142.415C517.127 142.735 517.007 143.015 516.767 143.255C516.537 143.485 516.257 143.6 515.927 143.6ZM514.967 152V144.5H516.902V152H514.967ZM522.843 144.29C523.663 144.29 524.338 144.565 524.868 145.115C525.408 145.665 525.678 146.425 525.678 147.395V152H523.743V147.635C523.743 147.135 523.608 146.755 523.338 146.495C523.068 146.225 522.708 146.09 522.258 146.09C521.758 146.09 521.358 146.245 521.058 146.555C520.758 146.865 520.608 147.33 520.608 147.95V152H518.673V144.5H520.608V145.34C521.078 144.64 521.823 144.29 522.843 144.29ZM528.965 149.045C529.225 149.985 529.93 150.455 531.08 150.455C531.82 150.455 532.38 150.205 532.76 149.705L534.32 150.605C533.58 151.675 532.49 152.21 531.05 152.21C529.81 152.21 528.815 151.835 528.065 151.085C527.315 150.335 526.94 149.39 526.94 148.25C526.94 147.12 527.31 146.18 528.05 145.43C528.79 144.67 529.74 144.29 530.9 144.29C532 144.29 532.905 144.67 533.615 145.43C534.335 146.19 534.695 147.13 534.695 148.25C534.695 148.5 534.67 148.765 534.62 149.045H528.965ZM528.935 147.545H532.76C532.65 147.035 532.42 146.655 532.07 146.405C531.73 146.155 531.34 146.03 530.9 146.03C530.38 146.03 529.95 146.165 529.61 146.435C529.27 146.695 529.045 147.065 528.935 147.545ZM491.497 163.555C492.417 164.085 492.877 164.885 492.877 165.955C492.877 166.845 492.562 167.575 491.932 168.145C491.302 168.715 490.527 169 489.607 169H485.152V158.5H489.292C490.192 158.5 490.947 158.78 491.557 159.34C492.177 159.89 492.487 160.595 492.487 161.455C492.487 162.325 492.157 163.025 491.497 163.555ZM489.292 160.435H487.222V162.745H489.292C489.612 162.745 489.877 162.635 490.087 162.415C490.307 162.195 490.417 161.92 490.417 161.59C490.417 161.26 490.312 160.985 490.102 160.765C489.892 160.545 489.622 160.435 489.292 160.435ZM489.607 167.065C489.957 167.065 490.247 166.95 490.477 166.72C490.707 166.48 490.822 166.18 490.822 165.82C490.822 165.47 490.707 165.18 490.477 164.95C490.247 164.71 489.957 164.59 489.607 164.59H487.222V167.065H489.607ZM500.651 168.07C499.881 168.83 498.941 169.21 497.831 169.21C496.721 169.21 495.781 168.83 495.011 168.07C494.251 167.3 493.871 166.36 493.871 165.25C493.871 164.14 494.251 163.205 495.011 162.445C495.781 161.675 496.721 161.29 497.831 161.29C498.941 161.29 499.881 161.675 500.651 162.445C501.421 163.205 501.806 164.14 501.806 165.25C501.806 166.36 501.421 167.3 500.651 168.07ZM496.376 166.735C496.766 167.125 497.251 167.32 497.831 167.32C498.411 167.32 498.896 167.125 499.286 166.735C499.676 166.345 499.871 165.85 499.871 165.25C499.871 164.65 499.676 164.155 499.286 163.765C498.896 163.375 498.411 163.18 497.831 163.18C497.251 163.18 496.766 163.375 496.376 163.765C495.996 164.155 495.806 164.65 495.806 165.25C495.806 165.85 495.996 166.345 496.376 166.735ZM509.558 168.07C508.788 168.83 507.848 169.21 506.738 169.21C505.628 169.21 504.688 168.83 503.918 168.07C503.158 167.3 502.778 166.36 502.778 165.25C502.778 164.14 503.158 163.205 503.918 162.445C504.688 161.675 505.628 161.29 506.738 161.29C507.848 161.29 508.788 161.675 509.558 162.445C510.328 163.205 510.713 164.14 510.713 165.25C510.713 166.36 510.328 167.3 509.558 168.07ZM505.283 166.735C505.673 167.125 506.158 167.32 506.738 167.32C507.318 167.32 507.803 167.125 508.193 166.735C508.583 166.345 508.778 165.85 508.778 165.25C508.778 164.65 508.583 164.155 508.193 163.765C507.803 163.375 507.318 163.18 506.738 163.18C506.158 163.18 505.673 163.375 505.283 163.765C504.903 164.155 504.713 164.65 504.713 165.25C504.713 165.85 504.903 166.345 505.283 166.735ZM518.989 169H516.739L514.009 165.595V169H512.074V158.5H514.009V164.8L516.589 161.5H518.899L515.884 165.205L518.989 169ZM520.915 160.6C520.595 160.6 520.315 160.485 520.075 160.255C519.845 160.015 519.73 159.735 519.73 159.415C519.73 159.095 519.845 158.815 520.075 158.575C520.315 158.335 520.595 158.215 520.915 158.215C521.245 158.215 521.525 158.335 521.755 158.575C521.995 158.815 522.115 159.095 522.115 159.415C522.115 159.735 521.995 160.015 521.755 160.255C521.525 160.485 521.245 160.6 520.915 160.6ZM519.955 169V161.5H521.89V169H519.955ZM527.831 161.29C528.651 161.29 529.326 161.565 529.856 162.115C530.396 162.665 530.666 163.425 530.666 164.395V169H528.731V164.635C528.731 164.135 528.596 163.755 528.326 163.495C528.056 163.225 527.696 163.09 527.246 163.09C526.746 163.09 526.346 163.245 526.046 163.555C525.746 163.865 525.596 164.33 525.596 164.95V169H523.661V161.5H525.596V162.34C526.066 161.64 526.811 161.29 527.831 161.29ZM538.063 161.5H539.953V168.64C539.953 169.8 539.568 170.685 538.798 171.295C538.038 171.905 537.118 172.21 536.038 172.21C535.228 172.21 534.513 172.055 533.893 171.745C533.283 171.435 532.813 170.98 532.483 170.38L534.133 169.435C534.513 170.135 535.168 170.485 536.098 170.485C536.708 170.485 537.188 170.325 537.538 170.005C537.888 169.685 538.063 169.23 538.063 168.64V167.83C537.493 168.59 536.693 168.97 535.663 168.97C534.603 168.97 533.713 168.6 532.993 167.86C532.283 167.11 531.928 166.2 531.928 165.13C531.928 164.07 532.288 163.165 533.008 162.415C533.728 161.665 534.613 161.29 535.663 161.29C536.693 161.29 537.493 161.67 538.063 162.43V161.5ZM534.448 166.615C534.848 166.995 535.353 167.185 535.963 167.185C536.573 167.185 537.073 166.995 537.463 166.615C537.863 166.225 538.063 165.73 538.063 165.13C538.063 164.54 537.863 164.055 537.463 163.675C537.073 163.285 536.573 163.09 535.963 163.09C535.353 163.09 534.848 163.285 534.448 163.675C534.058 164.055 533.863 164.54 533.863 165.13C533.863 165.73 534.058 166.225 534.448 166.615Z" fill="#9AA0A9"/>
<path d="M467.179 307.5V309.48H464.344V318H462.274V309.48H459.454V307.5H467.179ZM468.517 315.045C468.777 315.985 469.482 316.455 470.632 316.455C471.372 316.455 471.932 316.205 472.312 315.705L473.872 316.605C473.132 317.675 472.042 318.21 470.602 318.21C469.362 318.21 468.367 317.835 467.617 317.085C466.867 316.335 466.492 315.39 466.492 314.25C466.492 313.12 466.862 312.18 467.602 311.43C468.342 310.67 469.292 310.29 470.452 310.29C471.552 310.29 472.457 310.67 473.167 311.43C473.887 312.19 474.247 313.13 474.247 314.25C474.247 314.5 474.222 314.765 474.172 315.045H468.517ZM468.487 313.545H472.312C472.202 313.035 471.972 312.655 471.622 312.405C471.282 312.155 470.892 312.03 470.452 312.03C469.932 312.03 469.502 312.165 469.162 312.435C468.822 312.695 468.597 313.065 468.487 313.545ZM479.109 318.21C477.979 318.21 477.034 317.83 476.274 317.07C475.524 316.31 475.149 315.37 475.149 314.25C475.149 313.13 475.524 312.19 476.274 311.43C477.034 310.67 477.979 310.29 479.109 310.29C479.839 310.29 480.504 310.465 481.104 310.815C481.704 311.165 482.159 311.635 482.469 312.225L480.804 313.2C480.654 312.89 480.424 312.645 480.114 312.465C479.814 312.285 479.474 312.195 479.094 312.195C478.514 312.195 478.034 312.39 477.654 312.78C477.274 313.16 477.084 313.65 477.084 314.25C477.084 314.84 477.274 315.33 477.654 315.72C478.034 316.1 478.514 316.29 479.094 316.29C479.484 316.29 479.829 316.205 480.129 316.035C480.439 315.855 480.669 315.61 480.819 315.3L482.499 316.26C482.169 316.85 481.704 317.325 481.104 317.685C480.504 318.035 479.839 318.21 479.109 318.21ZM487.693 310.29C488.513 310.29 489.188 310.565 489.718 311.115C490.258 311.665 490.528 312.425 490.528 313.395V318H488.593V313.635C488.593 313.135 488.458 312.755 488.188 312.495C487.918 312.225 487.558 312.09 487.108 312.09C486.608 312.09 486.208 312.245 485.908 312.555C485.608 312.865 485.458 313.33 485.458 313.95V318H483.523V307.5H485.458V311.34C485.928 310.64 486.673 310.29 487.693 310.29ZM496.35 310.29C497.17 310.29 497.845 310.565 498.375 311.115C498.915 311.665 499.185 312.425 499.185 313.395V318H497.25V313.635C497.25 313.135 497.115 312.755 496.845 312.495C496.575 312.225 496.215 312.09 495.765 312.09C495.265 312.09 494.865 312.245 494.565 312.555C494.265 312.865 494.115 313.33 494.115 313.95V318H492.18V310.5H494.115V311.34C494.585 310.64 495.33 310.29 496.35 310.29ZM507.227 317.07C506.457 317.83 505.517 318.21 504.407 318.21C503.297 318.21 502.357 317.83 501.587 317.07C500.827 316.3 500.447 315.36 500.447 314.25C500.447 313.14 500.827 312.205 501.587 311.445C502.357 310.675 503.297 310.29 504.407 310.29C505.517 310.29 506.457 310.675 507.227 311.445C507.997 312.205 508.382 313.14 508.382 314.25C508.382 315.36 507.997 316.3 507.227 317.07ZM502.952 315.735C503.342 316.125 503.827 316.32 504.407 316.32C504.987 316.32 505.472 316.125 505.862 315.735C506.252 315.345 506.447 314.85 506.447 314.25C506.447 313.65 506.252 313.155 505.862 312.765C505.472 312.375 504.987 312.18 504.407 312.18C503.827 312.18 503.342 312.375 502.952 312.765C502.572 313.155 502.382 313.65 502.382 314.25C502.382 314.85 502.572 315.345 502.952 315.735ZM509.743 318V307.05H511.678V318H509.743ZM519.839 317.07C519.069 317.83 518.129 318.21 517.019 318.21C515.909 318.21 514.969 317.83 514.199 317.07C513.439 316.3 513.059 315.36 513.059 314.25C513.059 313.14 513.439 312.205 514.199 311.445C514.969 310.675 515.909 310.29 517.019 310.29C518.129 310.29 519.069 310.675 519.839 311.445C520.609 312.205 520.994 313.14 520.994 314.25C520.994 315.36 520.609 316.3 519.839 317.07ZM515.564 315.735C515.954 316.125 516.439 316.32 517.019 316.32C517.599 316.32 518.084 316.125 518.474 315.735C518.864 315.345 519.059 314.85 519.059 314.25C519.059 313.65 518.864 313.155 518.474 312.765C518.084 312.375 517.599 312.18 517.019 312.18C516.439 312.18 515.954 312.375 515.564 312.765C515.184 313.155 514.994 313.65 514.994 314.25C514.994 314.85 515.184 315.345 515.564 315.735ZM528.101 310.5H529.991V317.64C529.991 318.8 529.606 319.685 528.836 320.295C528.076 320.905 527.156 321.21 526.076 321.21C525.266 321.21 524.551 321.055 523.931 320.745C523.321 320.435 522.851 319.98 522.521 319.38L524.171 318.435C524.551 319.135 525.206 319.485 526.136 319.485C526.746 319.485 527.226 319.325 527.576 319.005C527.926 318.685 528.101 318.23 528.101 317.64V316.83C527.531 317.59 526.731 317.97 525.701 317.97C524.641 317.97 523.751 317.6 523.031 316.86C522.321 316.11 521.966 315.2 521.966 314.13C521.966 313.07 522.326 312.165 523.046 311.415C523.766 310.665 524.651 310.29 525.701 310.29C526.731 310.29 527.531 310.67 528.101 311.43V310.5ZM524.486 315.615C524.886 315.995 525.391 316.185 526.001 316.185C526.611 316.185 527.111 315.995 527.501 315.615C527.901 315.225 528.101 314.73 528.101 314.13C528.101 313.54 527.901 313.055 527.501 312.675C527.111 312.285 526.611 312.09 526.001 312.09C525.391 312.09 524.886 312.285 524.486 312.675C524.096 313.055 523.901 313.54 523.901 314.13C523.901 314.73 524.096 315.225 524.486 315.615ZM536.635 310.5H538.705L535.975 318C535.585 319.08 535.065 319.86 534.415 320.34C533.775 320.83 532.975 321.05 532.015 321V319.2C532.535 319.21 532.945 319.1 533.245 318.87C533.555 318.64 533.8 318.27 533.98 317.76L530.905 310.5H533.02L534.97 315.54L536.635 310.5Z" fill="#9AA0A9"/>
<path d="M445.065 144.039H421.301C416.724 144.039 413 147.763 413 152.34C413 156.917 416.723 160.64 421.3 160.641H421.3H421.301H445.064C449.641 160.641 453.365 156.917 453.365 152.34C453.365 147.763 449.642 144.039 445.065 144.039Z" fill="#00CEF2"/>
<path d="M453.365 152.34C453.365 156.917 449.642 160.641 445.064 160.641H430.301V144.039H445.064C449.642 144.039 453.365 147.763 453.365 152.34Z" fill="#00CEF2"/>
<path d="M445.064 158.276H421.301C418.028 158.276 415.365 155.613 415.365 152.34C415.365 149.067 418.028 146.405 421.301 146.405H445.064C448.337 146.405 451 149.067 451 152.34C451 155.613 448.337 158.276 445.064 158.276Z" fill="#3DE9F2"/>
<path d="M451 152.34C451 155.613 448.338 158.276 445.064 158.276H430.301V146.405H445.064C448.338 146.405 451 149.067 451 152.34Z" fill="#3DE9F2"/>
<path d="M424.582 152.774H425.779C426.255 152.774 426.57 152.977 426.57 153.488C426.57 154.006 426.185 154.146 425.758 154.146H424.582V152.774ZM423.483 155H425.905C426.808 155 427.669 154.566 427.669 153.551C427.669 152.928 427.368 152.459 426.752 152.284C427.2 152.067 427.431 151.745 427.431 151.241C427.431 150.31 426.787 150.002 425.835 150.002H423.483V155ZM424.582 150.856H425.611C426.003 150.856 426.367 150.961 426.367 151.43C426.367 151.85 426.087 152.025 425.695 152.025H424.582V150.856ZM433.228 152.48C433.228 151.045 432.059 149.89 430.638 149.89C429.21 149.89 428.055 151.045 428.055 152.48C428.055 153.908 429.21 155.063 430.638 155.063C432.059 155.063 433.228 153.908 433.228 152.48ZM430.638 150.947C431.471 150.947 432.15 151.647 432.15 152.48C432.15 153.313 431.471 154.006 430.638 154.006C429.805 154.006 429.112 153.313 429.112 152.48C429.112 151.647 429.805 150.947 430.638 150.947ZM438.683 152.48C438.683 151.045 437.514 149.89 436.093 149.89C434.665 149.89 433.51 151.045 433.51 152.48C433.51 153.908 434.665 155.063 436.093 155.063C437.514 155.063 438.683 153.908 438.683 152.48ZM436.093 150.947C436.926 150.947 437.605 151.647 437.605 152.48C437.605 153.313 436.926 154.006 436.093 154.006C435.26 154.006 434.567 153.313 434.567 152.48C434.567 151.647 435.26 150.947 436.093 150.947ZM441.695 152.83L443.578 149.995H442.213L440.26 152.83V149.995H439.14V155H440.26V154.503L440.911 153.6L442.213 155H443.725L441.695 152.83Z" fill="white"/>
<path d="M443.901 167.518V176.6L443.555 176.994H427.884L427.345 176.599L421.773 171.924C421.161 171.41 420.78 170.657 420.729 169.859C420.678 169.06 420.96 168.266 421.504 167.677C422.57 166.522 424.349 166.41 425.553 167.42L427.345 168.924V154.17C427.345 152.54 428.671 151.214 430.301 151.214C431.931 151.214 433.258 152.54 433.258 154.17V163.163L440.743 163.992C442.543 164.191 443.901 165.707 443.901 167.518Z" fill="#FDDBCC"/>
<path d="M443.901 167.518V176.6L443.555 176.994H430.301V151.214C431.931 151.214 433.257 152.54 433.257 154.17V163.163L440.743 163.992C442.543 164.191 443.901 165.707 443.901 167.518Z" fill="#FBCDBE"/>
<path d="M443.901 176.6V180.778C443.901 181.431 443.371 181.961 442.718 181.961H428.527C427.874 181.961 427.345 181.431 427.345 180.778V176.6H443.901Z" fill="#00347B"/>
<path d="M443.901 176.6V180.778C443.901 181.431 443.371 181.961 442.718 181.961H430.301V176.6H443.901Z" fill="#002860"/>
</g>
<defs>
<filter id="filter0_d" x="195.694" y="282.962" width="100.274" height="140.8" filterUnits="userSpaceOnUse" color-interpolation-filters="sRGB">
<feFlood flood-opacity="0" result="BackgroundImageFix"/>
<feColorMatrix in="SourceAlpha" type="matrix" values="0 0 0 0 0 0 0 0 0 0 0 0 0 0 0 0 0 0 127 0"/>
<feOffset dy="8"/>
<feGaussianBlur stdDeviation="4"/>
<feColorMatrix type="matrix" values="0 0 0 0 0.933333 0 0 0 0 0.937255 0 0 0 0 0.952941 0 0 0 0.2 0"/>
<feBlend mode="normal" in2="BackgroundImageFix" result="effect1_dropShadow"/>
<feBlend mode="normal" in="SourceGraphic" in2="effect1_dropShadow" result="shape"/>
</filter>
<filter id="filter1_d" x="265.894" y="282.962" width="100.274" height="140.8" filterUnits="userSpaceOnUse" color-interpolation-filters="sRGB">
<feFlood flood-opacity="0" result="BackgroundImageFix"/>
<feColorMatrix in="SourceAlpha" type="matrix" values="0 0 0 0 0 0 0 0 0 0 0 0 0 0 0 0 0 0 127 0"/>
<feOffset dy="8"/>
<feGaussianBlur stdDeviation="4"/>
<feColorMatrix type="matrix" values="0 0 0 0 0.933333 0 0 0 0 0.937255 0 0 0 0 0.952941 0 0 0 0.2 0"/>
<feBlend mode="normal" in2="BackgroundImageFix" result="effect1_dropShadow"/>
<feBlend mode="normal" in="SourceGraphic" in2="effect1_dropShadow" result="shape"/>
</filter>
<linearGradient id="paint0_linear" x1="318.691" y1="260.213" x2="203.694" y2="260.213" gradientUnits="userSpaceOnUse">
<stop stop-color="#9297A2"/>
<stop offset="1" stop-color="#E4E9F3"/>
</linearGradient>
<linearGradient id="paint1_linear" x1="388.891" y1="260.213" x2="273.894" y2="260.213" gradientUnits="userSpaceOnUse">
<stop stop-color="#9297A2"/>
<stop offset="1" stop-color="#E4E9F3"/>
</linearGradient>
<clipPath id="clip0">
<rect width="556" height="413" fill="white" transform="matrix(-1 0 0 1 556 0.499756)"/>
</clipPath>
</defs>
</svg>
